<svg width="20" height="19" viewBox="0 0 20 19" fill="none" xmlns="http://www.w3.org/2000/svg">
<path d="M12.4905 7.19075C13.3645 7.19075 14.0738 7.90009 14.0738 8.77409V11.7146H14.0702V11.9408C14.0702 12.1207 13.9987 12.2933 13.8715 12.4206C13.7442 12.5478 13.5716 12.6193 13.3916 12.6193C13.2117 12.6193 13.0391 12.5478 12.9118 12.4206C12.7846 12.2933 12.7131 12.1207 12.7131 11.9408V9.90504H12.7167V8.77409C12.7167 8.7141 12.6929 8.65657 12.6504 8.61415C12.608 8.57173 12.5505 8.5479 12.4905 8.5479H7.51251C7.45252 8.5479 7.39498 8.57173 7.35256 8.61415C7.31015 8.65657 7.28631 8.7141 7.28631 8.77409V11.7146H7.28451V11.9408C7.28451 12.1207 7.21301 12.2933 7.08576 12.4206C6.9585 12.5478 6.7859 12.6193 6.60593 12.6193C6.42597 12.6193 6.25337 12.5478 6.12611 12.4206C5.99885 12.2933 5.92736 12.1207 5.92736 11.9408V9.90504H5.92917V8.77409C5.92917 7.90009 6.6376 7.19075 7.51251 7.19075H12.4905ZM17.6893 8.77409V11.9408C17.6893 12.1207 17.7608 12.2933 17.888 12.4206C18.0153 12.5478 18.1879 12.6193 18.3678 12.6193C18.5478 12.6193 18.7204 12.5478 18.8477 12.4206C18.9749 12.2933 19.0464 12.1207 19.0464 11.9408V8.77409C19.0464 8.35416 18.8796 7.95143 18.5827 7.6545C18.2857 7.35757 17.883 7.19075 17.4631 7.19075H14.4095C14.7198 7.56623 14.9225 8.03399 14.9686 8.5479H17.4631C17.5231 8.5479 17.5806 8.57173 17.623 8.61415C17.6654 8.65657 17.6893 8.7141 17.6893 8.77409ZM0.951172 11.9408C0.951172 12.1207 1.02266 12.2933 1.14992 12.4206C1.27718 12.5478 1.44977 12.6193 1.62974 12.6193C1.80971 12.6193 1.98231 12.5478 2.10957 12.4206C2.23682 12.2933 2.30831 12.1207 2.30831 11.9408V8.77409C2.30831 8.7141 2.33215 8.65657 2.37456 8.61415C2.41698 8.57173 2.47452 8.5479 2.53451 8.5479H5.03436C5.07936 8.04942 5.2743 7.57626 5.59351 7.19075H2.53451C2.11458 7.19075 1.71185 7.35757 1.41492 7.6545C1.11799 7.95143 0.951172 8.35416 0.951172 8.77409V11.9408ZM9.99879 0.857422C10.7187 0.857422 11.4091 1.14339 11.9181 1.65242C12.4271 2.16145 12.7131 2.85183 12.7131 3.57171C12.7131 4.29158 12.4271 4.98197 11.9181 5.491C11.4091 6.00002 10.7187 6.28599 9.99879 6.28599C9.27892 6.28599 8.58853 6.00002 8.0795 5.491C7.57047 4.98197 7.28451 4.29158 7.28451 3.57171C7.28451 2.85183 7.57047 2.16145 8.0795 1.65242C8.58853 1.14339 9.27892 0.857422 9.99879 0.857422ZM9.99879 2.21456C9.63885 2.21456 9.29366 2.35755 9.03915 2.61206C8.78463 2.86658 8.64165 3.21177 8.64165 3.57171C8.64165 3.93164 8.78463 4.27684 9.03915 4.53135C9.29366 4.78587 9.63885 4.92885 9.99879 4.92885C10.3587 4.92885 10.7039 4.78587 10.9584 4.53135C11.2129 4.27684 11.3559 3.93164 11.3559 3.57171C11.3559 3.21177 11.2129 2.86658 10.9584 2.61206C10.7039 2.35755 10.3587 2.21456 9.99879 2.21456ZM15.8797 1.76218C16.4796 1.76218 17.055 2.00049 17.4792 2.42468C17.9033 2.84887 18.1416 3.42419 18.1416 4.02409C18.1416 4.62398 17.9033 5.19931 17.4792 5.6235C17.055 6.04769 16.4796 6.28599 15.8797 6.28599C15.2798 6.28599 14.7045 6.04769 14.2803 5.6235C13.8561 5.19931 13.6178 4.62398 13.6178 4.02409C13.6178 3.42419 13.8561 2.84887 14.2803 2.42468C14.7045 2.00049 15.2798 1.76218 15.8797 1.76218ZM15.8797 3.11933C15.6398 3.11933 15.4097 3.21465 15.24 3.38433C15.0703 3.554 14.975 3.78413 14.975 4.02409C14.975 4.26405 15.0703 4.49418 15.24 4.66385C15.4097 4.83353 15.6398 4.92885 15.8797 4.92885C16.1197 4.92885 16.3498 4.83353 16.5195 4.66385C16.6892 4.49418 16.7845 4.26405 16.7845 4.02409C16.7845 3.78413 16.6892 3.554 16.5195 3.38433C16.3498 3.21465 16.1197 3.11933 15.8797 3.11933ZM4.11784 1.76218C4.71773 1.76218 5.29306 2.00049 5.71725 2.42468C6.14144 2.84887 6.37974 3.42419 6.37974 4.02409C6.37974 4.62398 6.14144 5.19931 5.71725 5.6235C5.29306 6.04769 4.71773 6.28599 4.11784 6.28599C3.51794 6.28599 2.94262 6.04769 2.51843 5.6235C2.09424 5.19931 1.85593 4.62398 1.85593 4.02409C1.85593 3.42419 2.09424 2.84887 2.51843 2.42468C2.94262 2.00049 3.51794 1.76218 4.11784 1.76218ZM4.11784 3.11933C3.87788 3.11933 3.64775 3.21465 3.47808 3.38433C3.3084 3.554 3.21308 3.78413 3.21308 4.02409C3.21308 4.26405 3.3084 4.49418 3.47808 4.66385C3.64775 4.83353 3.87788 4.92885 4.11784 4.92885C4.3578 4.92885 4.58793 4.83353 4.7576 4.66385C4.92728 4.49418 5.0226 4.26405 5.0226 4.02409C5.0226 3.78413 4.92728 3.554 4.7576 3.38433C4.58793 3.21465 4.3578 3.11933 4.11784 3.11933ZM1.62974 13.5241C1.44977 13.5241 1.27718 13.5956 1.14992 13.7228C1.02266 13.8501 0.951172 14.0227 0.951172 14.2027V14.655C0.951172 15.5549 1.30863 16.4179 1.94492 17.0542C2.5812 17.6904 3.44419 18.0479 4.34403 18.0479H15.6536C16.5534 18.0479 17.4164 17.6904 18.0527 17.0542C18.6889 16.4179 19.0464 15.5549 19.0464 14.655V14.2027C19.0464 14.0227 18.9749 13.8501 18.8477 13.7228C18.7204 13.5956 18.5478 13.5241 18.3678 13.5241H1.62974ZM4.34403 16.6908C3.8433 16.6907 3.36014 16.5062 2.98692 16.1724C2.61371 15.8385 2.37662 15.3789 2.32098 14.8812H17.6766C17.621 15.3789 17.3839 15.8385 17.0107 16.1724C16.6374 16.5062 16.1543 16.6907 15.6536 16.6908H4.34403Z" fill="#292929"/>
</svg>
