<svg width="18" height="18" viewBox="0 0 18 18" fill="none" xmlns="http://www.w3.org/2000/svg">
<path d="M5.47047 10.2112L8.03095 7.65068L1.67952 1.3083C1.00172 1.98806 0.621094 2.90883 0.621094 3.86878C0.621094 4.82872 1.00172 5.74949 1.67952 6.42925L5.47047 10.2112ZM11.6048 8.57354C12.989 9.21592 14.9343 8.76354 16.3729 7.32497C18.1009 5.59687 18.4357 3.11782 17.1057 1.78782C15.7848 0.466871 13.3057 0.792585 11.5686 2.52068C10.13 3.95925 9.67761 5.90449 10.32 7.28877L1.48952 16.1193L2.76523 17.395L8.99904 11.1793L15.2238 17.404L16.4995 16.1283L10.2748 9.90354L11.6048 8.57354Z" fill="#292929"/>
</svg>
