<svg width="16" height="16" viewBox="0 0 16 16" fill="none" xmlns="http://www.w3.org/2000/svg">
<path fill-rule="evenodd" clip-rule="evenodd" d="M7.72827 1C11.4382 1 14.4558 3.95111 14.4558 7.57919C14.4558 9.2909 13.7841 10.8521 12.6849 12.0238L14.8478 14.1345C15.0503 14.3325 15.051 14.6527 14.8485 14.8507C14.7477 14.9507 14.6143 15 14.4817 15C14.3497 15 14.2171 14.9507 14.1155 14.852L11.9265 12.7173C10.775 13.6191 9.31495 14.1591 7.72827 14.1591C4.01836 14.1591 1 11.2073 1 7.57919C1 3.95111 4.01836 1 7.72827 1ZM7.72827 2.01343C4.5897 2.01343 2.03629 4.50985 2.03629 7.57919C2.03629 10.6485 4.5897 13.1456 7.72827 13.1456C10.8661 13.1456 13.4196 10.6485 13.4196 7.57919C13.4196 4.50985 10.8661 2.01343 7.72827 2.01343Z" fill="#292929" stroke="#292929"/>
</svg>
