<svg width="20" height="21" viewBox="0 0 20 21" fill="none" xmlns="http://www.w3.org/2000/svg">
<path fill-rule="evenodd" clip-rule="evenodd" d="M16.4163 8.84155C16.4163 5.12048 14.3643 2.53787 11.7093 1.76269C11.6131 1.51399 11.4612 1.28278 11.2547 1.08878C10.5491 0.42581 9.44962 0.42581 8.74401 1.08878C8.53792 1.28241 8.38619 1.5131 8.29003 1.76125C5.6319 2.5333 3.58301 5.11014 3.58301 8.84155C3.58301 11.256 3.09624 12.6088 2.19514 13.5893C2.04448 13.7532 1.63628 14.1287 1.35978 14.3831L1.35977 14.3831L1.35976 14.3831L1.35946 14.3834C1.2288 14.5036 1.12759 14.5967 1.09698 14.6275L0.833008 14.8952V18.0211H6.41365C6.60236 18.9947 7.13059 19.646 8.08586 20.2289C9.26097 20.946 10.7384 20.946 11.9135 20.2289C12.7565 19.7145 13.3218 18.9238 13.5511 18.0211H19.1663V14.8952L18.9024 14.6275C18.8746 14.5993 18.7774 14.5096 18.6503 14.3924C18.3746 14.1381 17.9584 13.7542 17.8054 13.5871C16.9037 12.6021 16.4163 11.2475 16.4163 8.84155ZM11.5917 18.0211H8.33007C8.45958 18.2621 8.68033 18.444 9.04086 18.664C9.62959 19.0233 10.3698 19.0233 10.9585 18.664C11.2311 18.4976 11.4441 18.2775 11.5917 18.0211ZM16.4528 14.8249C16.6457 15.0356 17.0592 15.4208 17.3327 15.6724V16.1877H2.66602V15.6728C2.93741 15.4241 3.35208 15.0393 3.54463 14.8298C4.76905 13.4976 5.41602 11.6994 5.41602 8.84143C5.41602 5.37634 7.55439 3.35278 9.99935 3.35278C12.4374 3.35278 14.5827 5.38678 14.5827 8.84143C14.5827 11.6902 15.2298 13.4889 16.4528 14.8249Z" fill="white"/>
</svg>
