<svg viewBox="0 0 24 30" fill="none" xmlns="http://www.w3.org/2000/svg">
<path d="M17.7672 0.514513C17.7056 0.445638 15.4853 0.5417 13.5532 2.63876C11.6211 4.73401 11.9183 7.13739 11.9618 7.19901C12.0053 7.26064 14.7168 7.3567 16.4477 4.91889C18.1787 2.48107 17.8289 0.5852 17.7672 0.514513ZM23.7739 21.7806C23.6869 21.6066 19.5598 19.5439 19.9441 15.5782C20.3283 11.6106 22.98 10.5231 23.0217 10.4053C23.0634 10.2875 21.9396 8.97345 20.7488 8.30826C19.8745 7.83928 18.9068 7.57059 17.9159 7.52164C17.7201 7.5162 17.0404 7.34945 15.643 7.73189C14.7222 7.98383 12.6469 8.79945 12.076 8.83208C11.5032 8.8647 9.79949 7.88595 7.96705 7.62676C6.79437 7.4002 5.55099 7.8642 4.66105 8.22126C3.77293 8.57651 2.08368 9.58789 0.901928 12.2758C-0.279822 14.962 0.33824 19.2177 0.780491 20.5408C1.22274 21.8621 1.9133 24.0281 3.0878 25.6086C4.1318 27.3921 5.51655 28.63 6.09474 29.0505C6.67293 29.471 8.30418 29.7501 9.43518 29.1719C10.3451 28.6137 11.9872 28.2929 12.6361 28.3165C13.2831 28.34 14.5591 28.5956 15.8659 29.2934C16.9009 29.6504 17.8796 29.5018 18.8602 29.1031C19.8407 28.7025 21.2599 27.1836 22.9166 24.1042C23.5455 22.6723 23.8319 21.8984 23.7739 21.7806Z" fill="#292929"/>
<path d="M17.7672 0.514513C17.7056 0.445638 15.4853 0.5417 13.5532 2.63876C11.6211 4.73401 11.9183 7.13739 11.9618 7.19901C12.0053 7.26064 14.7168 7.3567 16.4477 4.91889C18.1787 2.48107 17.8289 0.5852 17.7672 0.514513ZM23.7739 21.7806C23.6869 21.6066 19.5598 19.5439 19.9441 15.5782C20.3283 11.6106 22.98 10.5231 23.0217 10.4053C23.0634 10.2875 21.9396 8.97345 20.7488 8.30826C19.8745 7.83928 18.9068 7.57059 17.9159 7.52164C17.7201 7.5162 17.0404 7.34945 15.643 7.73189C14.7222 7.98383 12.6469 8.79945 12.076 8.83208C11.5032 8.8647 9.79949 7.88595 7.96705 7.62676C6.79437 7.4002 5.55099 7.8642 4.66105 8.22126C3.77293 8.57651 2.08368 9.58789 0.901928 12.2758C-0.279822 14.962 0.33824 19.2177 0.780491 20.5408C1.22274 21.8621 1.9133 24.0281 3.0878 25.6086C4.1318 27.3921 5.51655 28.63 6.09474 29.0505C6.67293 29.471 8.30418 29.7501 9.43518 29.1719C10.3451 28.6137 11.9872 28.2929 12.6361 28.3165C13.2831 28.34 14.5591 28.5956 15.8659 29.2934C16.9009 29.6504 17.8796 29.5018 18.8602 29.1031C19.8407 28.7025 21.2599 27.1836 22.9166 24.1042C23.5455 22.6723 23.8319 21.8984 23.7739 21.7806Z" fill="#292929"/>
</svg>
