<svg width="60" height="60" viewBox="0 0 60 60" fill="none" xmlns="http://www.w3.org/2000/svg">
<path d="M27.4997 44.9999C26.8327 44.9847 26.1965 44.7166 25.7197 44.2499L15.7197 34.0924C15.4684 33.8635 15.2663 33.5858 15.1259 33.2762C14.9856 32.9666 14.9098 32.6316 14.9033 32.2917C14.8968 31.9519 14.9597 31.6142 15.0881 31.2995C15.2165 30.9847 15.4077 30.6994 15.6502 30.4611C15.8926 30.2228 16.181 30.0364 16.4979 29.9134C16.8148 29.7903 17.1535 29.7332 17.4932 29.7455C17.8329 29.7578 18.1666 29.8392 18.4737 29.9848C18.7809 30.1305 19.0552 30.3372 19.2797 30.5924L27.5122 38.9524L50.7322 15.7349C50.9628 15.4961 51.2387 15.3057 51.5437 15.1746C51.8487 15.0436 52.1768 14.9747 52.5087 14.9718C52.8407 14.9689 53.1699 15.0321 53.4771 15.1578C53.7843 15.2835 54.0635 15.4692 54.2982 15.7039C54.5329 15.9386 54.7186 16.2178 54.8443 16.525C54.97 16.8323 55.0332 17.1615 55.0303 17.4934C55.0275 17.8254 54.9585 18.1534 54.8275 18.4584C54.6965 18.7634 54.506 19.0393 54.2672 19.2699L29.2672 44.2699C28.7981 44.7379 28.1624 45.0004 27.4997 44.9999Z" fill="white"/>
<path opacity="0.4" d="M27.5 35C27.0056 34.9999 26.5223 34.8532 26.1113 34.5785C25.7003 34.3038 25.3799 33.9133 25.1908 33.4566C25.0016 32.9998 24.9521 32.4973 25.0485 32.0124C25.1449 31.5275 25.3829 31.0821 25.7325 30.7325L40.7325 15.7325C40.9631 15.4937 41.2389 15.3032 41.5439 15.1722C41.849 15.0412 42.177 14.9722 42.509 14.9693C42.8409 14.9664 43.1701 15.0297 43.4773 15.1554C43.7846 15.2811 44.0637 15.4667 44.2984 15.7015C44.5332 15.9362 44.7188 16.2153 44.8445 16.5226C44.9702 16.8298 45.0335 17.159 45.0306 17.491C45.0277 17.8229 44.9587 18.151 44.8277 18.456C44.6967 18.761 44.5062 19.0368 44.2675 19.2675L29.2675 34.2675C28.7987 34.7363 28.1629 34.9998 27.5 35Z" fill="white"/>
<path opacity="0.4" d="M17.4998 44.9999C17.1682 44.9992 16.84 44.9325 16.5344 44.8038C16.2288 44.675 15.9519 44.4868 15.7198 44.2499L5.71979 34.0999C5.2976 33.6201 5.07521 32.9968 5.09831 32.3581C5.12142 31.7194 5.38825 31.1138 5.844 30.6658C6.29975 30.2177 6.90979 29.9612 7.54879 29.9489C8.18779 29.9367 8.80722 30.1697 9.27979 30.5999L19.2798 40.7499C19.6241 41.1012 19.8571 41.5462 19.9497 42.0293C20.0423 42.5124 19.9904 43.012 19.8004 43.4657C19.6103 43.9194 19.2907 44.307 18.8815 44.5799C18.4723 44.8528 17.9917 44.9989 17.4998 44.9999Z" fill="white"/>
</svg>
