<svg height="23" width="23" viewBox="0 0 26 26" fill="none" xmlns="http://www.w3.org/2000/svg">
<path d="M24.6668 22.3333V13.203C24.6669 12.5678 24.5373 11.9392 24.2859 11.3559C24.0346 10.7725 23.6667 10.2466 23.205 9.81034L14.6032 1.68101C14.1699 1.27143 13.5964 1.04321 13.0002 1.04321C12.404 1.04321 11.8304 1.27143 11.3972 1.68101L2.79533 9.81034C2.33359 10.2466 1.96577 10.7725 1.71441 11.3559C1.46305 11.9392 1.33343 12.5678 1.3335 13.203V22.3333C1.3335 22.9522 1.57933 23.5457 2.01691 23.9833C2.4545 24.4208 3.04799 24.6667 3.66683 24.6667H22.3335C22.9523 24.6667 23.5458 24.4208 23.9834 23.9833C24.421 23.5457 24.6668 22.9522 24.6668 22.3333Z" stroke="white" stroke-width="2" stroke-linecap="round" stroke-linejoin="round"/>
</svg>
