<svg width="18" height="28" viewBox="0 0 18 28" fill="none" xmlns="http://www.w3.org/2000/svg">
<path d="M10.3407 12.3482L13.6228 21.5918L14.3363 25.262L13.187 26.3774C13.187 26.3774 9.51292 17.1904 8.71154 16.1253L8.27442 15.7384L5.80244 19.788L3.58795 22.6582L2.3708 23.9746L1.92992 24.9505C1.92992 24.9505 0.780596 24.634 0.673828 24.1291L4.6506 17.885L5.65924 14.0891L6.56237 11.4325L10.3407 12.3482Z" fill="white"/>
<path d="M14.3388 25.2271C14.3903 25.2384 14.4242 25.3213 14.4694 25.369C14.5046 25.4067 14.5347 25.4607 14.5787 25.4758C15.046 25.6366 15.4617 25.6265 15.9591 25.4959C16.1249 25.4532 16.336 25.4293 16.4591 25.2987C16.6324 25.114 16.8924 25.1706 17.1147 25.2886C17.1863 25.3263 17.214 25.3853 17.1901 25.4582C17.1625 25.5411 17.1285 25.624 17.0871 25.7019C16.9401 25.9732 16.7492 26.2119 16.5219 26.4216C16.3535 26.5774 16.2744 26.6364 16.0558 26.6992C15.8436 26.8085 15.8875 26.8449 15.6313 26.9165C15.5346 26.9429 15.4831 27.017 15.3939 27.0471C15.3901 27.0861 15.1678 27.169 15.1728 27.1866C15.0212 27.2996 14.868 27.3984 14.7131 27.483C14.6026 27.5433 14.4882 27.5973 14.3727 27.6488C14.2232 27.7166 14.0474 27.6865 13.928 27.5735C13.6391 27.2971 13.3741 27.0195 13.2786 26.6138C13.2573 26.5209 13.2146 26.4342 13.1895 26.3425C14.1755 25.874 14.1642 25.1881 14.3388 25.2271Z" fill="white"/>
<path d="M0.148584 26.2514C-0.00214707 25.9713 -0.0297809 25.6937 0.0279992 25.3696C0.0945719 24.9915 0.236509 24.6938 0.519129 24.4414C0.605799 24.3635 0.643482 24.2165 0.677397 24.0947C0.797981 23.6701 0.741457 24.7805 1.93349 24.9162C1.91464 25.0053 1.8644 25.5191 1.86942 25.5882C1.89957 26.0642 2.09678 26.4662 2.37186 26.8656C2.40954 26.9196 2.47863 26.9925 2.53138 27.0314C2.62936 27.1043 2.80019 27.2073 2.90067 27.2776C3.08155 27.4045 2.96473 27.5741 2.95971 27.7801C2.95594 27.917 2.89816 27.9835 2.75999 27.9923C2.19601 28.0313 1.66091 27.932 1.17481 27.6343C1.02659 27.5439 0.922334 27.407 0.850737 27.2487C0.750249 27.0251 0.197571 26.3418 0.148584 26.2526V26.2514Z" fill="white"/>
<path d="M2.25093 24.6443L6.82435 18.35C6.82435 18.35 8.4246 15.3103 9.03758 15.3354C9.03758 15.3354 8.4133 15.0013 6.85324 17.6227L4.57721 20.8961C4.57721 20.8961 0.818988 23.7926 2.24967 24.6455L2.25093 24.6443Z" fill="white"/>
<path d="M13.1265 25.8124L8.71387 16.0903C8.71387 16.0903 9.57178 15.976 10.7927 19.0697L11.5765 20.9337C11.5765 20.9337 12.7045 20.6474 11.9835 22.0579C11.9835 22.0579 12.6002 23.78 13.129 25.8124H13.1265Z" fill="white"/>
<path d="M10.4992 3.39895C10.4452 3.41025 10.3723 3.43914 10.3522 3.48185C10.2568 3.68156 10.1023 3.85616 10.0809 4.09231C10.0696 4.22168 10.003 4.26565 9.87115 4.26188C9.80835 4.25937 9.74554 4.24806 9.64631 4.23676C9.79202 4.41889 9.95028 4.4729 10.1337 4.45155C10.1852 4.44527 10.243 4.39628 10.2769 4.35106C10.4389 4.1325 10.5758 3.89384 10.7542 3.69036C10.9489 3.46929 11.077 3.19671 11.0983 2.90405C11.1059 2.8023 11.1134 2.7508 11.1436 2.73196C11.1687 2.32499 11.1436 2.06121 11.1436 2.06121C10.6838 0.942036 9.53577 1.19451 9.53577 1.19451C8.50201 1.16939 8.36133 1.57762 8.36133 1.57762C8.1277 1.71453 8.08122 1.79618 8.11765 2.05116C8.13021 2.1416 8.1478 2.23455 8.17669 2.32122C8.21814 2.44683 8.20181 2.53727 8.06992 2.57118C8.04605 2.57746 8.02596 2.59756 8.00586 2.61012C8.06615 2.75583 8.10007 2.79351 8.24326 2.78221C8.44549 2.76713 8.61883 2.78849 8.74821 2.96936C8.79468 3.03342 8.87507 3.04473 8.94667 2.94801C8.91275 2.894 8.87758 2.83747 8.84493 2.77969C8.76328 2.63399 8.71806 2.47823 8.73565 2.30992C8.74821 2.19561 8.85623 2.09387 8.95169 2.10266C9.06223 2.11271 9.09112 2.19938 9.10619 2.28982C9.12127 2.37649 9.13006 2.46567 9.14262 2.55234C9.16397 2.70307 9.24185 2.81989 9.3662 2.90279C9.43905 2.95178 9.49935 2.91786 9.50688 2.82994C9.51065 2.78346 9.49809 2.73447 9.50186 2.688C9.5094 2.5963 9.51191 2.5021 9.53452 2.41292C9.55838 2.32499 9.65134 2.27726 9.73675 2.3074C9.841 2.34509 9.94023 2.39784 9.96912 2.51717C10.0118 2.69177 10.1425 2.72819 10.2945 2.73573C10.356 2.73824 10.4175 2.7395 10.4778 2.73824C10.5808 2.73573 10.6298 2.78723 10.6273 2.88646C10.6248 3.01584 10.621 3.14522 10.6122 3.27334C10.6072 3.33991 10.572 3.3801 10.4979 3.39518L10.4992 3.39895Z" fill="white"/>
<path d="M11.012 9.89121C10.5121 9.72164 9.98077 9.68144 9.45824 9.75806C9.26103 9.78695 9.05126 9.75807 8.85029 9.7342C8.73975 9.72164 8.63047 9.6714 8.59907 9.50434C9.31379 9.4139 9.99835 9.50057 10.6942 9.71159C10.909 8.8788 11.1188 8.06486 11.3286 7.24966C11.4278 6.34653 11.1866 5.21479 11.0748 4.75632C10.8437 4.53776 10.5862 4.26519 10.4229 4.30664C10.438 4.50008 9.95188 4.54781 10.0988 4.68598C10.1981 4.77893 10.4104 7.71441 10.4845 8.76073C10.1152 6.88916 10.448 5.65317 9.8941 4.5654C9.56877 3.9273 8.5727 4.02402 8.04891 3.53792C7.99866 3.49144 7.95721 3.41482 7.88059 3.43617C7.83537 3.61454 7.81527 3.78788 7.74493 3.93735C7.67459 4.08557 7.55401 4.20992 7.44222 4.36191C7.53893 4.40336 7.6143 4.43099 7.68464 4.46868C7.83914 4.55283 7.99238 4.64076 8.14186 4.73246C8.17326 4.7513 8.18707 4.79903 8.23606 4.87314C8.10292 4.8455 8.0175 4.83043 7.93335 4.80908C7.60299 4.72366 7.27139 4.65583 6.92848 4.64202C6.69107 4.63323 6.46749 4.67844 6.264 4.80154C6.19241 4.8455 6.13588 4.91208 6.03916 4.99749C6.14844 5.07034 6.21627 5.1231 6.28913 5.16455C6.50266 5.28639 6.68354 5.46224 6.81417 5.67075C6.99756 5.96719 7.09428 6.29377 7.18095 6.62538C7.32163 7.16048 7.54019 7.66165 7.82658 8.1352C7.98861 8.40275 8.21848 8.62507 8.48728 8.78836C8.66941 8.8989 8.8528 9.00692 9.03493 9.11872C9.07136 9.14007 9.10151 9.17273 9.15552 9.21795C8.97967 9.20916 8.83773 9.19408 8.69579 9.19785C8.41694 9.20664 8.13809 9.23428 7.85924 9.23679C7.6771 9.23804 7.4912 9.22548 7.31284 9.19031C7.10558 9.15012 6.95862 9.01446 6.9021 8.80721C6.88577 8.74817 6.89079 8.65773 6.92596 8.61879C6.95108 8.59116 7.05032 8.61 7.10684 8.63261C7.23999 8.68537 7.36308 8.76199 7.49623 8.80972C7.61304 8.85117 7.73865 8.88006 7.86301 8.88885C7.97982 8.89764 8.01876 8.82479 7.95596 8.72556C7.90948 8.65271 7.85421 8.58362 7.79392 8.52082C7.39574 8.11008 6.99756 7.70059 6.59561 7.29488C6.27908 6.97583 5.95501 6.66558 5.7377 6.26237C5.54552 5.90439 5.51286 5.55519 5.73645 5.19846C5.77287 5.14068 5.81935 5.08039 5.80051 4.99121C5.63093 5.0314 5.53296 5.1432 5.44252 5.26252C5.20387 5.5778 5.2001 5.93704 5.27672 6.29754C5.50909 7.39913 5.95752 8.40526 6.65213 9.29582C6.98123 9.71787 7.37062 10.0495 7.90069 10.204C8.21973 10.2969 8.52873 10.4263 8.8415 10.5406C8.87792 10.5544 8.90933 10.5795 8.94324 10.5984L8.92566 10.6449C8.49105 10.5645 8.05519 10.4853 7.62058 10.4024C7.43342 10.3673 7.26134 10.2781 7.11563 10.1562C7.06162 10.111 7.00133 10.0733 6.90586 10.0055C6.86441 10.317 6.77649 10.5934 6.6446 10.8458C6.50894 11.1071 6.64962 11.4249 6.93727 11.4902L9.18567 12.0002C9.30123 12.0127 10.07 12.1132 10.2345 12.1384C10.4053 11.8871 10.3551 11.5731 10.4719 11.288C10.6151 11.337 10.7495 11.3822 10.8839 11.4274C11.0648 11.4877 11.2431 11.5555 11.4265 11.602C11.5823 11.6409 11.6288 11.602 11.6978 11.4349C11.6275 11.3432 11.5069 11.2804 11.5107 11.1373C11.5182 10.8446 11.5911 10.5833 11.8636 10.4225C11.9805 10.3535 12.1048 10.2957 12.2216 10.2278C12.2694 10.2002 12.3397 10.1814 12.3259 10.0897C12.3008 10.0834 12.2756 10.0696 12.2518 10.0721C11.8235 10.1135 11.4115 10.0281 11.012 9.89247V9.89121ZM8.35665 8.46555C8.26621 8.02969 8.55385 6.66934 8.47346 6.20836C8.46844 6.18198 8.39684 5.59413 8.33781 5.36552C8.28756 5.16832 8.06147 5.02889 8.25114 4.95981C8.43578 4.89198 8.58274 5.96468 8.65685 6.26363C8.7184 6.50731 8.36293 8.50323 8.35539 8.46555H8.35665Z" fill="white"/>
<path d="M12.472 10.1386C12.472 10.1386 12.6868 11.1171 11.9307 11.6082C11.9307 11.6082 12.1228 11.9034 12.3276 11.7678C12.3276 11.7678 12.5085 11.558 12.4469 11.4236C12.4469 11.4236 12.8464 11.3068 12.6931 11.0418C12.6931 11.0418 13.0373 10.7717 12.7974 10.587C12.7974 10.587 12.9016 10.1374 12.6868 10.1374H12.472V10.1386Z" fill="white"/>
<path d="M11.1483 1.71241L11.0164 1.45617C10.9938 1.41221 10.9486 1.38458 10.8983 1.38583H10.8921C10.5944 0.926103 9.94875 0.162401 9.03054 0.357095C9.03054 0.349559 9.0318 0.343278 9.0318 0.336998C9.02678 0.142304 8.85972 -0.00842669 8.65874 0.00036593C8.45777 0.00790246 8.2995 0.172451 8.30453 0.365888C8.30704 0.462607 8.351 0.549277 8.41883 0.610825C8.06587 0.840689 7.49058 1.34187 8.05331 2.63187C8.03195 2.66327 8.02191 2.70096 8.03195 2.73864L8.0508 2.80772C8.07466 2.89439 8.17515 2.93208 8.24926 2.88183C8.86977 2.45351 10.5391 2.02644 11.0642 1.89957C11.1458 1.87947 11.1872 1.78778 11.1483 1.71367V1.71241Z" fill="white"/>
<path d="M11.1758 4.79514C11.1758 4.79514 11.6167 5.84271 11.4509 6.88904C11.4509 6.88904 12.158 5.57391 11.1758 4.79514Z" fill="white"/>
<path d="M7.38381 3.43149C7.38381 3.43149 5.97448 3.6601 5.40673 3.94146C5.35774 3.96533 5.31504 4.0005 5.27861 4.04069C5.07764 4.26679 4.50612 5.09455 4.87541 6.88824C5.3188 9.04244 5.34518 8.83392 5.34518 8.83392L5.12286 6.8895C5.12286 6.8895 4.91058 4.99532 5.51099 4.30949C5.51099 4.30949 5.79612 3.84851 7.38633 3.43149H7.38381Z" fill="white"/>
<path d="M8.78009 6.31131H8.55273V6.45325H8.78009V6.31131Z" fill="white"/>
<path d="M5.41992 9.5519C5.41992 9.5519 5.77288 10.5442 6.71621 9.84708C6.71621 9.84708 5.82187 10.0958 5.41992 9.5519Z" fill="white"/>
<path d="M5.95801 4.18954C5.95801 4.18954 6.58605 4.12799 6.66519 4.57139C6.66519 4.57139 6.73301 3.9559 5.95801 4.18954Z" fill="white"/>
</svg>
