<svg width="18" height="30" viewBox="0 0 18 30" fill="none" xmlns="http://www.w3.org/2000/svg">
<path fill-rule="evenodd" clip-rule="evenodd" d="M9.00023 8.22713C7.763 8.22713 6.79065 7.27433 6.79065 6.06194C6.79065 4.84977 7.763 3.89697 9.00023 3.89697C10.2375 3.89697 11.2098 4.84977 11.2098 6.06194C11.2098 7.27433 10.2375 8.22713 9.00023 8.22713ZM9.00026 0C5.59734 0 2.81348 2.72783 2.81348 6.06217C2.81348 10.6089 9.00026 17.3208 9.00026 17.3208C9.00026 17.3208 15.187 10.6089 15.187 6.06217C15.187 2.72783 12.4032 0 9.00026 0Z" fill="white"/>
<path d="M0.5 29.3208H8.51044C15.6897 29.3208 17.5 28.9162 17.5 26.8165C17.5 24.8132 15.7401 24.7166 8.39822 24.7166C3.47043 24.7166 1.15736 24.5735 1.15736 22.5214C1.15736 20.0503 5.54737 20.2914 9.65779 20.361" stroke="white" stroke-linecap="round" stroke-linejoin="round" stroke-dasharray="6.06 6.06"/>
</svg>
