<svg width="85" height="88" viewBox="0 0 85 88" fill="none" xmlns="http://www.w3.org/2000/svg">
<g filter="url(#filter0_d_425_5101)">
<path d="M74.2498 51.8021V51.4863L73.4447 50.9657H73.403V43.4387H73.8784V41.9743H71.824V41.2004H71.9386V41.0026H71.824V40.6209H71.1959C71.0536 40.2808 70.8177 39.618 70.835 39.0211C70.8628 38.1743 70.8073 37.8759 70.8073 37.8759C70.8073 37.8759 71.1612 37.685 71.1612 37.1367C71.1612 36.5884 71.0259 35.7451 71.0259 35.7451C71.0259 35.7451 71.3243 35.3357 71.3243 35.0337C71.3243 34.7318 71.241 34.652 71.241 34.652C71.241 34.652 71.4319 34.4056 71.3243 33.6699C71.2168 32.9308 71.1612 31.4594 71.0502 31.1297C70.9426 30.8035 70.8593 30.6369 70.8593 30.6369C70.8593 30.6369 71.5152 30.6369 71.7061 30.446C71.8969 30.2552 72.1433 29.7624 72.1711 29.2731C72.1988 28.7803 72.2544 28.4541 72.2544 28.4541C72.2544 28.4541 72.7194 28.4264 73.0178 27.8815C73.3163 27.3367 73.4273 27.1701 73.3718 26.9515C73.3163 26.7329 73.2364 26.653 73.2364 26.653L73.5661 25.8063L72.1988 24.9873L71.5152 25.7785C71.5152 25.7785 70.7517 25.8618 70.5296 25.0428C70.311 24.2239 70.2034 23.7311 69.846 23.3771C69.492 23.0231 69.2456 22.9954 69.0548 22.5859C68.8639 22.1764 68.7008 22.0411 68.8639 21.7947C69.027 21.5483 68.8917 21.3019 68.8639 20.9479C68.85 20.7605 68.8813 20.4517 68.857 20.1359L70.2659 20.0387L68.8431 19.9867C68.8257 19.8583 68.798 19.7333 68.7529 19.6188L69.9466 19.1191L68.6592 19.4279C68.6383 19.3967 68.6175 19.369 68.5967 19.3412C68.5204 19.2475 68.4197 19.1711 68.3052 19.1087L69.1797 18.0745L68.0796 19.015C67.9443 18.9699 67.802 18.9456 67.6597 18.9352L67.5001 16.9675L67.3405 18.9386C67.1704 18.956 67.0108 18.9942 66.8754 19.0566L65.7233 18.0745L66.6638 19.185C66.5631 19.2683 66.4833 19.369 66.4278 19.4731L65.1334 19.1642C65.1056 18.661 64.9217 17.9288 64.7169 17.4568C64.474 16.8842 64.5538 16.6656 64.5538 15.8987C64.5538 15.1318 64.1999 15.1352 64.2276 14.6147C64.2415 14.3683 64.2589 14.1531 64.2762 13.9935H64.6822C64.7551 13.9935 64.8106 13.9345 64.8106 13.8651V13.6326C64.8106 13.5632 64.7516 13.5042 64.6822 13.5042H64.3595C64.5851 13.4452 64.7343 13.3897 64.7343 13.2474C64.7343 13.1051 64.2936 12.8691 63.7557 12.8691C63.2178 12.8691 62.7736 13.0669 62.7736 13.2474C62.7736 13.3515 62.9193 13.4452 63.1484 13.5042H62.8256C62.7562 13.5042 62.6972 13.5632 62.6972 13.6326V13.8651C62.6972 13.9345 62.7562 13.9935 62.8256 13.9935H63.1657L63.2976 14.4759C63.2976 14.4759 63.2143 14.5314 63.2698 14.9687C63.3254 15.4059 63.3254 15.569 63.3254 15.569C63.3254 15.569 63.4607 15.9785 63.5717 16.7177C63.6793 17.4534 63.5995 18.2203 63.6793 18.8484C63.7626 19.4765 64.2519 20.3788 64.0333 20.5141C63.8147 20.6495 63.3531 21.5518 63.4885 22.2076C63.6238 22.8635 63.9257 22.9433 63.9257 22.9433C63.9257 22.9433 63.8181 23.4916 64.0611 23.6547C64.3074 23.8178 64.3873 24.2273 64.3352 24.5015C64.2797 24.7756 64.2519 25.2406 64.4428 25.5113C64.6337 25.782 64.9078 26.1394 64.5504 27.0417C64.1964 27.944 64.2485 28.7074 64.3595 28.9816C64.4705 29.2557 64.6337 29.4466 64.6337 29.4466C64.6337 29.4466 64.3074 30.3766 64.3352 31.0846C64.363 31.796 64.7169 32.2853 64.7447 33.1598C64.7725 34.0343 64.8557 34.2807 64.7447 34.6902C64.6371 35.0997 64.8002 35.3461 64.8002 35.3461C64.8002 35.3461 64.6094 36.3282 64.6892 36.7654C64.7725 37.2027 64.6337 37.8585 64.7169 38.1847C64.8002 38.5109 64.6614 38.9482 64.7447 39.3056C64.828 39.6596 64.828 40.017 64.6371 40.26C64.5469 40.3745 64.422 40.5133 64.3144 40.6278H63.4295V41.0095H63.315V41.2073H63.4295V41.9812H61.3751V43.4457H61.8505V50.9727H61.8054L61.0038 51.4932V51.809H60.0356V37.05H57.6133V36.8973H56.8117V32.4449H56.5792L56.3952 31.5774L56.2113 32.4449H55.6942V31.324L55.486 30.9839H55.2778V29.4917H55.1008L55.0245 29.1308V28.4194H54.8753L54.7122 27.649L54.5491 28.4194H54.3998V29.1308L54.3235 29.4883H54.1465V30.9805H53.9383L53.7301 31.3206V32.4414H53.213L53.0291 31.5739L52.8452 32.4414H52.6126V36.8938H51.811V50.532H50.3604V38.6532H49.9405V38.5318H49.3367V38.6532H47.3934V38.799H45.0891V39.0454H44.2146V46.7008H43.3227V55.1682H42.5385V53.5025H42.0144V39.5728H40.6402V47.8737H39.8212V43.928H37.7703V33.1598H34.6922V61.3106L34.6748 46.1837V61.8034H34.0537V61.3106H33.5817V33.7844H31.392V30.7896H27.7621V58.4407H27.6441V58.1457H27.5053V57.8507H26.6099V34.1662H23.3236V39.5555H19.8984L20.7625 46.5099H21.7307L21.6995 47.4816C21.6995 47.4816 21.3802 47.8807 20.9707 47.8425L21.1234 48.7656H21.7307V49.6887H21.2796C21.2796 49.6887 22.3554 55.5153 23.2993 56.6223H24.6666L24.7013 57.8612L23.8719 57.934L25.9089 62.6709C25.9089 62.6709 17.2437 72.006 21.6891 74.3241C45.8179 86.9247 63.9847 72.5959 66.3306 71.3189C73.8611 67.217 80.1284 53.2769 80.1284 53.2769L74.2463 51.8021H74.2498Z" stroke="white" stroke-width="0.63" stroke-miterlimit="10"/>
<path d="M23.8748 57.9315H24.1385C24.43 57.9315 24.666 57.6955 24.666 57.404V56.6232H23.2987C22.9482 55.7973 22.629 54.9852 22.3479 54.2079C21.987 53.1946 21.6261 51.6225 21.279 49.6896H21.7302V48.7665H21.1229C21.0708 48.4611 21.0222 48.1592 20.9702 47.8434H21.1888C21.4872 47.8434 21.7302 47.6005 21.7302 47.3021V46.5074H20.762C19.3426 36.9155 18.2356 22.5729 18.2183 18.8702H18.2391C18.5826 18.8702 18.8637 18.5891 18.8637 18.2455V16.9407H18.4369V16.316C18.4369 15.9829 18.1731 15.7192 17.8469 15.7087V14.5774H17.4756V10.2812H17.2015V14.5705H16.8301V15.7018C16.5039 15.7122 16.2402 15.9829 16.2402 16.3091V16.9338H15.8134V18.2386C15.8134 18.5821 16.0944 18.8632 16.438 18.8632H16.4588C16.4415 22.566 15.3345 36.9156 13.9151 46.5004H12.9469V47.2951C12.9469 47.5936 13.1898 47.8365 13.4883 47.8365H13.7069C13.6548 48.1523 13.6063 48.4611 13.5542 48.7596H12.9469V49.6896H13.398C13.0476 51.626 12.6901 53.2015 12.3292 54.2079C12.0481 54.9852 11.7254 55.7938 11.3784 56.6232H10.0111V57.404C10.0111 57.6955 10.247 57.9315 10.5385 57.9315H10.8023C8.9214 62.1027 6.54774 66.3365 5.56218 68.0404H5V68.8281H12.4645V68.0404H11.4304L12.1002 63.9663C12.5166 61.4156 14.7168 59.5486 17.3021 59.5486H17.3923C19.9777 59.5486 22.1778 61.4191 22.5943 63.9663L23.264 68.0404H22.2299V68.8281L23.1113 68.6997L26.3838 64.4244L26.5018 64.1606C26.5018 64.1606 25.7591 62.0993 23.8817 57.935L23.8748 57.9315ZM16.7816 45.9521V37.0752C16.7816 36.7698 17.0245 36.5303 17.3264 36.5303H17.3368C17.6422 36.5303 17.8816 36.7733 17.8816 37.0752V45.9452C17.8816 46.2506 17.6387 46.49 17.3368 46.49H17.3264C17.021 46.497 16.7816 46.2471 16.7816 45.9487V45.9521ZM15.678 51.2443C15.8029 50.4322 16.5005 49.8354 17.3229 49.8354H17.3507C18.1731 49.8354 18.8707 50.4322 18.9956 51.2443L19.8354 56.6197H14.8486L15.6815 51.2443H15.678Z" stroke="white" stroke-width="0.63" stroke-miterlimit="10"/>
<path d="M46.7404 34.1158L55.8082 59.6535L57.7793 69.7936L54.604 72.8752C54.604 72.8752 44.4535 47.4936 42.2394 44.5509L41.0318 43.482L34.2023 54.6702L28.0842 62.5997L24.7215 66.2366L23.5035 68.933C23.5035 68.933 20.3282 68.0585 20.0332 66.6634L31.0201 49.4127L33.8067 38.9256L36.3018 31.5859L46.7404 34.1158V34.1158Z" fill="white"/>
<path d="M57.7866 69.696C57.9289 69.7272 58.0226 69.9562 58.1475 70.0881C58.2447 70.1922 58.328 70.3414 58.4494 70.3831C59.7404 70.8273 60.889 70.7995 62.2633 70.4386C62.7213 70.3206 63.3043 70.2547 63.6444 69.8938C64.1233 69.3837 64.8417 69.5398 65.4559 69.866C65.6537 69.9701 65.7301 70.1332 65.6641 70.3345C65.5878 70.5635 65.4941 70.7926 65.3796 71.0077C64.9735 71.7573 64.4461 72.4167 63.8179 72.9962C63.3529 73.4265 63.1343 73.5896 62.5305 73.7631C61.944 74.065 62.0655 74.1657 61.3575 74.3635C61.0903 74.4364 60.948 74.6411 60.7016 74.7244C60.6912 74.832 60.077 75.061 60.0909 75.1096C59.6721 75.4219 59.2488 75.6949 58.8208 75.9286C58.5154 76.0951 58.1996 76.2444 57.8803 76.3866C57.4674 76.574 56.9815 76.4908 56.6518 76.1784C55.8537 75.415 55.1215 74.648 54.8577 73.5272C54.7987 73.2704 54.6807 73.0309 54.6113 72.7776C57.3355 71.4832 57.3043 69.5884 57.7866 69.696V69.696Z" fill="white"/>
<path d="M18.5834 72.5249C18.1669 71.751 18.0906 70.9841 18.2502 70.0888C18.4341 69.0442 18.8263 68.2218 19.6071 67.5242C19.8465 67.3091 19.9506 66.903 20.0443 66.5664C20.3775 65.3935 20.2213 68.4612 23.5146 68.836C23.4625 69.0824 23.3237 70.5017 23.3376 70.6926C23.4209 72.0078 23.9657 73.1183 24.7257 74.2218C24.8298 74.3711 25.0207 74.5723 25.1665 74.6799C25.4371 74.8812 25.9091 75.1658 26.1867 75.3601C26.6864 75.7106 26.3637 76.1791 26.3498 76.7482C26.3394 77.1265 26.1798 77.3104 25.798 77.3347C24.2399 77.4423 22.7616 77.1681 21.4186 76.3457C21.0091 76.0958 20.721 75.7175 20.5232 75.2803C20.2456 74.6626 18.7187 72.7747 18.5834 72.5284V72.5249Z" fill="white"/>
<path d="M24.3932 68.0862L37.0284 50.6967C37.0284 50.6967 41.4496 42.2987 43.143 42.3681C43.143 42.3681 41.4183 41.445 37.1083 48.6874L30.8201 57.731C30.8201 57.731 20.4371 65.7334 24.3897 68.0897L24.3932 68.0862Z" fill="white"/>
<path d="M54.4381 71.3145L42.2471 44.4546C42.2471 44.4546 44.6173 44.1388 47.9904 52.6861L50.1558 57.836C50.1558 57.836 53.2721 57.0447 51.2802 60.9419C51.2802 60.9419 52.9841 65.6996 54.4451 71.3145H54.4381Z" fill="white"/>
<path d="M47.1824 9.39212C47.0332 9.42335 46.8319 9.50317 46.7764 9.62116C46.5127 10.1729 46.0858 10.6553 46.0268 11.3077C45.9956 11.6651 45.8117 11.7866 45.4473 11.7762C45.2738 11.7693 45.1003 11.738 44.8261 11.7068C45.2287 12.21 45.6659 12.3592 46.1726 12.3002C46.3149 12.2829 46.4745 12.1475 46.5682 12.0226C47.0158 11.4188 47.3941 10.7594 47.8869 10.1972C48.4248 9.58645 48.7787 8.83341 48.8377 8.02483C48.8586 7.74374 48.8794 7.60146 48.9627 7.54941C49.0321 6.42504 48.9627 5.69628 48.9627 5.69628C47.6926 2.60428 44.5207 3.3018 44.5207 3.3018C41.6647 3.23239 41.276 4.36023 41.276 4.36023C40.6306 4.73849 40.5022 4.96406 40.6028 5.66852C40.6375 5.91838 40.6861 6.17518 40.7659 6.41463C40.8804 6.76166 40.8353 7.01151 40.4709 7.10521C40.405 7.12256 40.3495 7.17809 40.2939 7.21279C40.4605 7.61534 40.5542 7.71945 40.9498 7.68822C41.5085 7.64657 41.9874 7.70557 42.3449 8.20529C42.4733 8.38227 42.6954 8.4135 42.8932 8.14629C42.7995 7.99707 42.7023 7.84091 42.6121 7.68128C42.3865 7.27873 42.2616 6.84841 42.3102 6.3834C42.3449 6.0676 42.6433 5.78651 42.9071 5.8108C43.2124 5.83856 43.2923 6.07801 43.3339 6.32787C43.3755 6.56732 43.3998 6.81371 43.4345 7.05316C43.4935 7.46959 43.7087 7.79232 44.0522 8.02136C44.2535 8.1567 44.4201 8.063 44.4409 7.82009C44.4513 7.69169 44.4166 7.55635 44.427 7.42795C44.4479 7.17462 44.4548 6.91435 44.5173 6.66796C44.5832 6.42504 44.84 6.29317 45.076 6.37646C45.364 6.48056 45.6382 6.62631 45.718 6.95599C45.836 7.43836 46.1969 7.53899 46.6168 7.55982C46.7868 7.56676 46.9569 7.57023 47.1234 7.56676C47.408 7.55982 47.5433 7.7021 47.5364 7.97625C47.5295 8.33369 47.519 8.69113 47.4948 9.04509C47.4809 9.22902 47.3837 9.34006 47.179 9.38171L47.1824 9.39212Z" fill="white"/>
<path d="M48.5985 27.3282C47.2173 26.8598 45.7494 26.7487 44.3058 26.9604C43.7609 27.0402 43.1814 26.9604 42.6261 26.8945C42.3208 26.8598 42.0189 26.7209 41.9321 26.2594C43.9067 26.0095 45.798 26.249 47.7205 26.832C48.3139 24.5312 48.8935 22.2825 49.473 20.0303C49.7471 17.5351 49.0808 14.4084 48.772 13.1418C48.1335 12.538 47.4221 11.7849 46.9709 11.8994C47.0126 12.4339 45.6696 12.5657 46.0756 12.9475C46.3497 13.2043 46.9362 21.3143 47.141 24.205C46.1207 19.0343 47.0403 15.6196 45.5099 12.6143C44.6111 10.8514 41.8592 11.1186 40.4121 9.77563C40.2733 9.64723 40.1588 9.43554 39.9471 9.49453C39.8222 9.98731 39.7667 10.4662 39.5723 10.8792C39.378 11.2887 39.0448 11.6322 38.736 12.0521C39.0032 12.1666 39.2114 12.243 39.4057 12.3471C39.8326 12.5796 40.256 12.8225 40.6689 13.0758C40.7557 13.1279 40.7938 13.2598 40.9292 13.4645C40.5613 13.3882 40.3254 13.3465 40.0929 13.2875C39.1802 13.0516 38.264 12.8642 37.3166 12.826C36.6608 12.8017 36.0431 12.9266 35.4809 13.2667C35.2831 13.3882 35.1269 13.5721 34.8597 13.8081C35.1616 14.0094 35.349 14.1551 35.5503 14.2696C36.1402 14.6062 36.6399 15.0921 37.0008 15.6681C37.5075 16.4871 37.7747 17.3894 38.0142 18.3055C38.4028 19.7839 39.0067 21.1685 39.7979 22.4768C40.2455 23.216 40.8806 23.8302 41.6232 24.2813C42.1264 24.5867 42.6331 24.8852 43.1363 25.194C43.2369 25.253 43.3202 25.3432 43.4694 25.4682C42.9836 25.4439 42.5914 25.4022 42.1993 25.4127C41.4289 25.4369 40.6585 25.5133 39.8881 25.5202C39.3849 25.5237 38.8713 25.489 38.3785 25.3918C37.806 25.2808 37.3999 24.906 37.2438 24.3334C37.1987 24.1703 37.2125 23.9204 37.3097 23.8129C37.3791 23.7365 37.6533 23.7886 37.8094 23.851C38.1773 23.9968 38.5174 24.2085 38.8852 24.3403C39.2079 24.4549 39.555 24.5347 39.8985 24.559C40.2213 24.5833 40.3288 24.382 40.1553 24.1078C40.0269 23.9066 39.8742 23.7157 39.7077 23.5422C38.6076 22.4074 37.5075 21.2761 36.397 20.1552C35.5225 19.2737 34.6272 18.4166 34.0268 17.3026C33.4959 16.3136 33.4057 15.3489 34.0234 14.3633C34.124 14.2037 34.2524 14.0371 34.2003 13.7907C33.7319 13.9018 33.4612 14.2106 33.2113 14.5403C32.552 15.4113 32.5416 16.4038 32.7532 17.3998C33.3952 20.4432 34.6341 23.2229 36.5532 25.6833C37.4624 26.8493 38.5382 27.7655 40.0026 28.1923C40.8841 28.4491 41.7378 28.8066 42.6019 29.1224C42.7025 29.1605 42.7893 29.2299 42.883 29.282L42.8344 29.4104C41.6337 29.1883 40.4295 28.9697 39.2288 28.7406C38.7117 28.6435 38.2363 28.3971 37.8337 28.0605C37.6845 27.9355 37.5179 27.8314 37.2542 27.644C37.1397 28.5047 36.8967 29.2681 36.5324 29.9656C36.1576 30.6875 36.5462 31.5654 37.3409 31.7459L43.5527 33.1548C43.872 33.1895 45.9958 33.4671 46.4504 33.5365C46.9223 32.8425 46.7835 31.9749 47.1063 31.1872C47.5019 31.3225 47.8732 31.4474 48.2445 31.5724C48.7442 31.7389 49.237 31.9263 49.7437 32.0547C50.174 32.1623 50.3024 32.0547 50.4932 31.5932C50.2989 31.3399 49.9658 31.1664 49.9762 30.7707C49.997 29.9622 50.1983 29.2404 50.9513 28.7962C51.2741 28.6053 51.6176 28.4457 51.9403 28.2583C52.0722 28.1819 52.2666 28.1299 52.2284 27.8765C52.159 27.8592 52.0896 27.821 52.0236 27.828C50.8403 27.9425 49.702 27.7065 48.5985 27.3317V27.3282ZM41.2623 23.3895C41.0125 22.1853 41.8072 18.427 41.5851 17.1534C41.5712 17.0805 41.3734 15.4565 41.2103 14.8249C41.0715 14.28 40.4468 13.8948 40.9708 13.704C41.481 13.5166 41.887 16.4802 42.0917 17.3061C42.2618 17.9793 41.2797 23.4936 41.2589 23.3895H41.2623Z" fill="white"/>
<path d="M52.6305 28.0093C52.6305 28.0093 53.2239 30.7126 51.1348 32.0695C51.1348 32.0695 51.6657 32.885 52.2314 32.5102C52.2314 32.5102 52.7311 31.9307 52.561 31.5594C52.561 31.5594 53.6646 31.2366 53.2412 30.5044C53.2412 30.5044 54.1921 29.7583 53.5293 29.2482C53.5293 29.2482 53.8173 28.0058 53.2239 28.0058H52.6305V28.0093Z" fill="white"/>
<path d="M48.9721 4.73099L48.6077 4.02305C48.5452 3.90159 48.4203 3.82525 48.2815 3.82872H48.2641C47.4417 2.5586 45.658 0.448676 43.1212 0.986567C43.1212 0.965745 43.1247 0.948394 43.1247 0.931043C43.1108 0.393151 42.6492 -0.0232809 42.094 0.00101098C41.5388 0.0218326 41.1015 0.476439 41.1154 1.01086C41.1223 1.27807 41.2438 1.51752 41.4312 1.68756C40.456 2.32262 38.8667 3.70726 40.4213 7.27122C40.3623 7.35798 40.3346 7.46209 40.3623 7.5662L40.4144 7.75706C40.4803 7.99651 40.758 8.10062 40.9627 7.96181C42.677 6.77844 47.289 5.59855 48.7396 5.24806C48.9651 5.19253 49.0797 4.9392 48.9721 4.73446V4.73099Z" fill="white"/>
<path d="M49.0488 13.248C49.0488 13.248 50.2669 16.1423 49.8088 19.033C49.8088 19.033 51.7626 15.3996 49.0488 13.248Z" fill="white"/>
<path d="M38.5724 9.48242C38.5724 9.48242 34.6788 10.114 33.1102 10.8914C32.9749 10.9573 32.8569 11.0545 32.7563 11.1655C32.201 11.7901 30.6221 14.0771 31.6423 19.0326C32.8673 24.9841 32.9402 24.408 32.9402 24.408L32.326 19.0361C32.326 19.0361 31.7395 13.8029 33.3983 11.9081C33.3983 11.9081 34.186 10.6346 38.5794 9.48242H38.5724Z" fill="white"/>
<path d="M42.4309 17.4375H41.8027V17.8296H42.4309V17.4375Z" fill="white"/>
<path d="M33.1484 26.3888C33.1484 26.3888 34.1236 29.1303 36.7298 27.2043C36.7298 27.2043 34.2589 27.8914 33.1484 26.3888Z" fill="white"/>
<path d="M34.6328 11.574C34.6328 11.574 36.3679 11.4039 36.5866 12.6289C36.5866 12.6289 36.774 10.9285 34.6328 11.574Z" fill="white"/>
</g>
<defs>
<filter id="filter0_d_425_5101" x="0.68457" y="0" width="83.8857" height="87.7879" filterUnits="userSpaceOnUse" color-interpolation-filters="sRGB">
<feFlood flood-opacity="0" result="BackgroundImageFix"/>
<feColorMatrix in="SourceAlpha" type="matrix" values="0 0 0 0 0 0 0 0 0 0 0 0 0 0 0 0 0 0 127 0" result="hardAlpha"/>
<feOffset dy="4"/>
<feGaussianBlur stdDeviation="2"/>
<feComposite in2="hardAlpha" operator="out"/>
<feColorMatrix type="matrix" values="0 0 0 0 0 0 0 0 0 0 0 0 0 0 0 0 0 0 0.25 0"/>
<feBlend mode="normal" in2="BackgroundImageFix" result="effect1_dropShadow_425_5101"/>
<feBlend mode="normal" in="SourceGraphic" in2="effect1_dropShadow_425_5101" result="shape"/>
</filter>
</defs>
</svg>
