<svg width="79" height="79" viewBox="0 0 79 79" fill="none" xmlns="http://www.w3.org/2000/svg">
<path d="M23.3624 6.93097C23.6806 7.31192 24.0279 7.83709 24.3938 8.35138L24.4044 8.34594C24.3567 8.23709 24.3063 8.13097 24.2586 8.02213C24.0809 7.64117 23.9086 7.25478 23.7575 6.8575L22.7552 4.34049L23.5612 3.86157L25.1998 8.59628L24.2665 9.15138L23.0044 7.64661C22.6677 7.24661 22.3814 6.8058 22.0685 6.38131L22.0579 6.38675C22.2594 6.87655 22.4874 7.35002 22.6598 7.84798L23.3332 9.70104L22.3999 10.2561L19.1943 6.44933L20.0004 5.97042L21.6655 8.0956C21.928 8.42757 22.1666 8.77315 22.3999 9.12145C22.4689 9.21669 22.5325 9.31737 22.5961 9.41533L22.6067 9.40988C22.3601 8.82485 22.0897 8.25614 21.9253 7.78267L21.0556 5.34457L21.6999 4.96089L23.3624 6.92552V6.93097Z" fill="white"/>
<path d="M25.303 5.36305C24.8761 4.18209 24.6215 3.27869 25.9526 2.72087C27.2862 2.16304 27.7184 2.99298 28.2169 4.144L28.4767 4.79706C28.9619 6.01883 29.2271 6.94673 27.8589 7.51816C26.4908 8.08959 26.048 7.23516 25.5628 6.01611L25.303 5.36305ZM26.5889 6.08414C26.74 6.46237 27.0131 7.06645 27.5859 6.827C28.1798 6.57938 27.9358 5.94809 27.7635 5.50727L27.2995 4.33448C27.1537 3.96713 26.8488 3.14808 26.231 3.40658C25.5761 3.67869 25.9473 4.45693 26.0878 4.81067L26.5916 6.08142L26.5889 6.08414Z" fill="white"/>
<path d="M30.2375 4.27747L30.7916 6.32917L29.9246 6.57679L28.6387 1.81216L30.2799 1.34685C31.0276 1.13461 31.6693 1.23801 31.9079 2.11692C32.0484 2.63665 32.067 3.22168 31.5075 3.4693V3.48291C32.0431 3.40672 32.2897 3.7006 32.4117 4.15774C32.4647 4.35366 32.7563 5.53189 33.0029 5.61081L33.0268 5.7006L32.0723 5.97271C31.884 5.69788 31.7462 5.1074 31.6534 4.79176C31.5685 4.5006 31.4678 4.1006 31.1443 4.09516C30.8897 4.09243 30.6379 4.17135 30.3913 4.24209L30.2375 4.28563V4.27747ZM30.0492 3.57815L30.7307 3.38495C31.0091 3.28427 31.1814 3.03121 31.0541 2.55502C30.911 2.02168 30.6697 1.99447 30.3409 2.08155L29.6966 2.26386L30.0519 3.57815H30.0492Z" fill="white"/>
<path d="M33.6231 5.58388L32.833 0.707679L33.7186 0.555298L34.3921 4.71585L36.0386 4.43558L36.1553 5.15123L33.6205 5.58388H33.6231Z" fill="white"/>
<path d="M36.7229 5.09765L36.3809 0.167023L38.2501 0.0309681C38.4675 0.0146415 38.9103 0.0826689 39.2179 0.520765C39.4459 0.847297 39.5414 1.38879 39.5997 2.20512C39.666 3.17927 39.7455 4.30309 39.0402 4.79561C38.8493 4.92894 38.6081 4.95887 38.3827 4.9752L36.7229 5.09765ZM37.9611 4.28132C38.7618 4.22418 38.7831 3.78608 38.685 2.3575C38.6054 1.19288 38.4569 0.741174 37.9187 0.78199L37.3301 0.825528L37.5714 4.30853L37.9611 4.2786V4.28132Z" fill="white"/>
<path d="M42.1564 0L45.1446 0.277552L45.0809 0.998642L44.0389 0.900683L43.6704 5.10205L42.7742 5.02042L43.1427 0.81905L42.0928 0.72109L42.1564 0Z" fill="white"/>
<path d="M45.6368 2.43799C45.9126 1.21078 46.1857 0.312816 47.5962 0.598531C49.0068 0.884245 48.9246 1.82302 48.7258 3.06384L48.5932 3.755C48.3439 5.04752 48.0682 5.97269 46.6179 5.67881C45.1702 5.38494 45.2577 4.42167 45.5069 3.12915L45.6395 2.43799H45.6368ZM46.3236 3.76588C46.2467 4.16589 46.1512 4.82711 46.7557 4.94956C47.3868 5.07745 47.5193 4.41351 47.6095 3.9482L47.8481 2.70738C47.9224 2.31826 48.108 1.46384 47.4531 1.3305C46.761 1.18901 46.6523 2.04887 46.5807 2.42439L46.3209 3.76861L46.3236 3.76588Z" fill="white"/>
<path d="M54.0772 5.43468C53.9818 5.9272 53.7935 6.53128 53.6265 7.14353L53.6397 7.14897C53.6954 7.04285 53.7431 6.93672 53.7988 6.8306C53.9818 6.45237 54.17 6.07414 54.3821 5.70679L55.6919 3.34216L56.5563 3.6959L53.9393 7.94625L52.9371 7.53536L53.3083 5.58706C53.4064 5.06733 53.5681 4.56393 53.6981 4.05236L53.6875 4.04692C53.4382 4.51223 53.2155 4.98842 52.9398 5.4374L51.9349 7.1272L50.9326 6.71631L51.8686 1.77753L52.7329 2.13127L52.1337 4.78706C52.0409 5.20339 51.9243 5.60883 51.8023 6.01427C51.7705 6.12856 51.7334 6.24284 51.6962 6.35441L51.7095 6.35985C52.0038 5.7993 52.2742 5.22787 52.5367 4.80338L53.8678 2.59658L54.5598 2.87957L54.0825 5.4374L54.0772 5.43468Z" fill="white"/>
<path d="M54.708 8.31905L58.0594 4.57755L59.12 5.18435L57.7253 10.0469L56.8848 9.56531L57.2719 8.3517L56.3519 7.82381L55.5485 8.79796L54.708 8.31633V8.31905ZM56.8186 7.26327L57.492 7.64966L57.9454 6.30272C58.017 6.07959 58.1045 5.87279 58.192 5.65782C58.2397 5.55714 58.2821 5.45374 58.3219 5.35306L58.3113 5.34761C58.2503 5.43197 58.1867 5.52449 58.1257 5.61972C57.9931 5.80748 57.8712 5.99524 57.7227 6.17211L56.8212 7.26327H56.8186Z" fill="white"/>
<path d="M58.0371 10.2819L60.7919 6.22751L61.529 6.7554L59.1799 10.2166L60.5507 11.1962L60.1477 11.7921L58.0398 10.2847L58.0371 10.2819Z" fill="white"/>
<path d="M60.57 12.1304L63.704 8.37534L64.3854 8.9767L62.9934 10.6447L63.0041 10.6529C63.3567 10.4515 63.8101 10.2747 64.1839 10.1304L65.2233 9.71684L65.9949 10.3944L63.7465 11.2134L62.9059 14.1876L62.1344 13.51L62.7283 11.4638L62.1503 11.6597L61.2515 12.7373L60.5674 12.1359L60.57 12.1304Z" fill="white"/>
<path d="M64.725 49.7102V49.4626L64.1099 49.0544H64.0781V43.1524H64.4413V42.0041H62.8717V41.3973H62.9592V41.2422H62.8717V40.9428H62.3917C62.283 40.6762 62.1027 40.1564 62.116 39.6884C62.1372 39.0245 62.0948 38.7905 62.0948 38.7905C62.0948 38.7905 62.3652 38.6408 62.3652 38.2109C62.3652 37.7809 62.2618 37.1197 62.2618 37.1197C62.2618 37.1197 62.4899 36.7986 62.4899 36.5619C62.4899 36.3251 62.4262 36.2626 62.4262 36.2626C62.4262 36.2626 62.572 36.0694 62.4899 35.4925C62.4077 34.9129 62.3652 33.7592 62.2804 33.5006C62.1982 33.2449 62.1346 33.1143 62.1346 33.1143C62.1346 33.1143 62.6357 33.1143 62.7815 32.9646C62.9273 32.8149 63.1156 32.4285 63.1368 32.0449C63.158 31.6585 63.2004 31.4027 63.2004 31.4027C63.2004 31.4027 63.5557 31.3809 63.7837 30.9537C64.0118 30.5265 64.0966 30.3959 64.0542 30.2245C64.0118 30.053 63.9508 29.9904 63.9508 29.9904L64.2027 29.3265L63.158 28.6843L62.6357 29.3047C62.6357 29.3047 62.0524 29.37 61.8827 28.7279C61.7156 28.0857 61.6334 27.6993 61.3603 27.4217C61.0899 27.1442 60.9016 27.1224 60.7558 26.8013C60.61 26.4802 60.4854 26.3741 60.61 26.1809C60.7346 25.9877 60.6312 25.7945 60.61 25.517C60.5994 25.37 60.6232 25.1278 60.6047 24.8802L61.6812 24.804L60.5941 24.7632C60.5808 24.6625 60.5596 24.5646 60.5251 24.4748L61.4372 24.0829L60.4535 24.3251C60.4376 24.3006 60.4217 24.2789 60.4058 24.2571C60.3475 24.1836 60.2706 24.1238 60.1831 24.0748L60.8513 23.2639L60.0108 24.0013C59.9074 23.9659 59.7986 23.9469 59.6899 23.9387L59.568 22.3959L59.446 23.9414C59.3161 23.9551 59.1941 23.985 59.0907 24.034L58.2104 23.2639L58.929 24.1346C58.8521 24.1999 58.7911 24.2789 58.7487 24.3605L57.7597 24.1183C57.7385 23.7238 57.598 23.1496 57.4415 22.7795C57.2559 22.3306 57.3169 22.1591 57.3169 21.5578C57.3169 20.9564 57.0465 20.9591 57.0677 20.551C57.0783 20.3578 57.0915 20.1891 57.1048 20.0639H57.415C57.4707 20.0639 57.5131 20.0176 57.5131 19.9632V19.7809C57.5131 19.7265 57.468 19.6802 57.415 19.6802H57.1684C57.3408 19.634 57.4548 19.5904 57.4548 19.4788C57.4548 19.3673 57.118 19.1823 56.7071 19.1823C56.2961 19.1823 55.9567 19.3374 55.9567 19.4788C55.9567 19.5605 56.0681 19.634 56.2431 19.6802H55.9965C55.9435 19.6802 55.8984 19.7265 55.8984 19.7809V19.9632C55.8984 20.0176 55.9435 20.0639 55.9965 20.0639H56.2563L56.3571 20.4421C56.3571 20.4421 56.2934 20.4857 56.3359 20.8285C56.3783 21.1714 56.3783 21.2993 56.3783 21.2993C56.3783 21.2993 56.4817 21.6204 56.5665 22.1999C56.6487 22.7768 56.5878 23.3782 56.6487 23.8707C56.7124 24.3632 57.0862 25.0707 56.9192 25.1768C56.7521 25.2829 56.3995 25.9904 56.5029 26.5047C56.6063 27.019 56.837 27.0816 56.837 27.0816C56.837 27.0816 56.7548 27.5115 56.9404 27.6394C57.1286 27.7673 57.1896 28.0884 57.1499 28.3034C57.1074 28.5183 57.0862 28.883 57.2321 29.0952C57.3779 29.3074 57.5873 29.5877 57.3142 30.2952C57.0438 31.0027 57.0836 31.6013 57.1684 31.8163C57.2533 32.0313 57.3779 32.1809 57.3779 32.1809C57.3779 32.1809 57.1287 32.9102 57.1499 33.4653C57.1711 34.0231 57.4415 34.4068 57.4627 35.0925C57.4839 35.7782 57.5476 35.9714 57.4627 36.2925C57.3805 36.6136 57.5052 36.8068 57.5052 36.8068C57.5052 36.8068 57.3593 37.5768 57.4203 37.9197C57.4839 38.2626 57.3779 38.7769 57.4415 39.0326C57.5052 39.2884 57.3991 39.6313 57.4627 39.9115C57.5264 40.1891 57.5264 40.4694 57.3805 40.6598C57.3116 40.7496 57.2161 40.8585 57.134 40.9483H56.4578V41.2476H56.3703V41.4027H56.4578V42.0095H54.8882V43.1578H55.2514V49.0599H55.217L54.6045 49.468V49.7157H53.8647V38.1428H52.014V38.0231H51.4016V34.5319H51.2239L51.0834 33.8517L50.9429 34.5319H50.5478V33.653L50.3887 33.3864H50.2296V32.2163H50.0944L50.0361 31.9333V31.3755H49.922L49.7974 30.7714L49.6728 31.3755H49.5588V31.9333L49.5005 32.2136H49.3653V33.3836H49.2062L49.0471 33.6503V34.5292H48.652L48.5115 33.8489L48.371 34.5292H48.1933V38.0204H47.5808V48.7143H46.4725V39.4H46.1517V39.3047H45.6904V39.4H44.2056V39.5143H42.445V39.7075H41.7768V45.7102H41.0954V52.3497H40.4962V51.0435H40.0958V40.1211H39.0459V46.6299H38.4201V43.536H36.8531V35.0925H34.5013V57.166L34.4881 45.3048V57.5524H34.0134V57.166H33.6528V35.5823H31.9798V33.234H29.2064V54.9157H29.1162V54.6844H29.0102V54.4531H28.3261V35.8816H25.8152V40.1075H23.1982L23.8584 45.5605H24.5982L24.5743 46.3224C24.5743 46.3224 24.3304 46.6354 24.0175 46.6054L24.1342 47.3293H24.5982V48.0531H24.2535C24.2535 48.0531 25.0755 52.6218 25.7966 53.4898H26.8413L26.8678 54.4612L26.2341 54.5184L27.7905 58.2327C27.7905 58.2327 21.1699 65.5524 24.5664 67.3701C43.0018 77.2504 56.8821 66.015 58.6744 65.0136C64.4281 61.7973 69.2165 50.8667 69.2165 50.8667L64.7224 49.7102H64.725Z" stroke="white" stroke-width="0.63" stroke-miterlimit="10"/>
<path d="M26.2376 54.5168H26.4391C26.6618 54.5168 26.8421 54.3318 26.8421 54.1032V53.491H25.7974C25.5296 52.8434 25.2857 52.2066 25.0709 51.5971C24.7952 50.8025 24.5194 49.5699 24.2543 48.0542H24.599V47.3304H24.135C24.0952 47.091 24.0581 46.8542 24.0183 46.6066H24.1853C24.4134 46.6066 24.599 46.4161 24.599 46.1821V45.559H23.8592C22.7748 38.0379 21.929 26.7916 21.9157 23.8882H21.9316C22.1941 23.8882 22.4089 23.6678 22.4089 23.3984V22.3753H22.0828V21.8855C22.0828 21.6242 21.8813 21.4174 21.632 21.4093V20.5222H21.3483V17.1535H21.1389V20.5167H20.8551V21.4038C20.6059 21.412 20.4044 21.6242 20.4044 21.88V22.3698H20.0783V23.3929C20.0783 23.6623 20.293 23.8827 20.5555 23.8827H20.5714C20.5582 26.7861 19.7124 38.0379 18.6279 45.5535H17.8882V46.1767C17.8882 46.4107 18.0738 46.6012 18.3018 46.6012H18.4689C18.4291 46.8488 18.392 47.091 18.3522 47.325H17.8882V48.0542H18.2329C17.9651 49.5726 17.692 50.808 17.4162 51.5971C17.2015 52.2066 16.9549 52.8406 16.6897 53.491H15.6451V54.1032C15.6451 54.3318 15.8254 54.5168 16.0481 54.5168H16.2496C14.8125 57.7876 12.9989 61.1073 12.2459 62.4434H11.8164V63.0611H17.5196V62.4434H16.7295L17.2412 59.2488C17.5594 57.2488 19.2404 55.7849 21.2157 55.7849H21.2847C23.26 55.7849 24.941 57.2515 25.2592 59.2488L25.7709 62.4434H24.9808V63.0611L25.6542 62.9604L28.1545 59.608L28.2447 59.4012C28.2447 59.4012 27.6773 57.7849 26.2429 54.5195L26.2376 54.5168ZM20.818 45.1236V38.163C20.818 37.9236 21.0036 37.7358 21.2343 37.7358H21.2423C21.4756 37.7358 21.6585 37.9263 21.6585 38.163V45.1182C21.6585 45.3576 21.4729 45.5454 21.2423 45.5454H21.2343C21.001 45.5508 20.818 45.3549 20.818 45.1209V45.1236ZM19.9749 49.2733C20.0703 48.6365 20.6033 48.1685 21.2316 48.1685H21.2529C21.8813 48.1685 22.4142 48.6365 22.5096 49.2733L23.1513 53.4882H19.3412L19.9775 49.2733H19.9749Z" stroke="white" stroke-width="0.63" stroke-miterlimit="10"/>
<path d="M43.7092 35.8446L50.6374 55.8691L52.1434 63.8202L49.7173 66.2365C49.7173 66.2365 41.9619 46.3344 40.2702 44.0269L39.3475 43.1888L34.1295 51.9617L29.455 58.1794L26.8858 61.0311L25.9551 63.1454C25.9551 63.1454 23.5291 62.4596 23.3037 61.3658L31.6982 47.8392L33.8273 39.616L35.7336 33.8609L43.7092 35.8446Z" fill="white"/>
<path d="M52.1477 63.7418C52.2564 63.7663 52.328 63.9459 52.4235 64.0493C52.4977 64.1309 52.5614 64.2479 52.6542 64.2806C53.6405 64.6289 54.5181 64.6071 55.5681 64.3241C55.9181 64.2316 56.3635 64.1799 56.6234 63.8969C56.9893 63.4969 57.5381 63.6193 58.0074 63.8751C58.1585 63.9568 58.2169 64.0846 58.1665 64.2425C58.1082 64.4221 58.0366 64.6016 57.9491 64.7704C57.6389 65.3581 57.2358 65.8751 56.7559 66.3295C56.4006 66.667 56.2336 66.7949 55.7723 66.9309C55.3242 67.1676 55.417 67.2466 54.8761 67.4017C54.6719 67.4588 54.5632 67.6193 54.3749 67.6846C54.367 67.769 53.8977 67.9486 53.9083 67.9867C53.5884 68.2316 53.2649 68.4456 52.9379 68.6289C52.7045 68.7595 52.4633 68.8765 52.2193 68.9881C51.9038 69.135 51.5326 69.0697 51.2807 68.8248C50.6709 68.2261 50.1114 67.6248 49.9099 66.7459C49.8649 66.5445 49.7747 66.3568 49.7217 66.1581C51.8031 65.1431 51.7792 63.6574 52.1477 63.7418Z" fill="white"/>
<path d="M22.1945 65.9598C21.8763 65.353 21.818 64.7517 21.94 64.0496C22.0805 63.2306 22.3801 62.5857 22.9767 62.0387C23.1596 61.87 23.2392 61.5517 23.3108 61.2877C23.5653 60.368 23.446 62.7734 25.9622 63.0673C25.9224 63.2605 25.8164 64.3734 25.827 64.5231C25.8906 65.5544 26.3069 66.4251 26.8875 67.2905C26.9671 67.4075 27.1129 67.5653 27.2243 67.6496C27.4311 67.8075 27.7917 68.0306 28.0038 68.183C28.3856 68.4578 28.139 68.8252 28.1284 69.2714C28.1205 69.568 27.9985 69.7122 27.7068 69.7313C26.5163 69.8156 25.3868 69.6007 24.3607 68.9558C24.0479 68.7598 23.8278 68.4632 23.6767 68.1204C23.4645 67.636 22.2979 66.1558 22.1945 65.9626V65.9598Z" fill="white"/>
<path d="M26.6337 62.4775L36.2876 48.8421C36.2876 48.8421 39.6655 42.2571 40.9594 42.3115C40.9594 42.3115 39.6417 41.5877 36.3486 47.2666L31.5442 54.3578C31.5442 54.3578 23.6111 60.6326 26.6311 62.4803L26.6337 62.4775Z" fill="white"/>
<path d="M49.5889 65.0126L40.2744 43.9513C40.2744 43.9513 42.0853 43.7037 44.6625 50.4057L46.317 54.4438C46.317 54.4438 48.698 53.8234 47.1761 56.8792C47.1761 56.8792 48.478 60.6098 49.5942 65.0126H49.5889Z" fill="white"/>
<path d="M44.0453 16.458C43.9313 16.4825 43.7775 16.5451 43.7351 16.6376C43.5336 17.0703 43.2075 17.4485 43.1624 17.9601C43.1385 18.2403 42.998 18.3356 42.7196 18.3274C42.587 18.322 42.4545 18.2975 42.245 18.273C42.5526 18.6676 42.8866 18.7846 43.2738 18.7383C43.3825 18.7247 43.5044 18.6186 43.576 18.5206C43.9181 18.0471 44.2071 17.5301 44.5836 17.0893C44.9945 16.6104 45.265 16.0199 45.3101 15.3859C45.326 15.1655 45.3419 15.0539 45.4055 15.0131C45.4585 14.1315 45.4055 13.5601 45.4055 13.5601C44.4351 11.1356 42.0117 11.6825 42.0117 11.6825C39.8295 11.6281 39.5326 12.5124 39.5326 12.5124C39.0394 12.809 38.9413 12.9859 39.0182 13.5383C39.0447 13.7342 39.0818 13.9356 39.1428 14.1233C39.2303 14.3954 39.1958 14.5914 38.9174 14.6648C38.8671 14.6784 38.8246 14.722 38.7822 14.7492C38.9095 15.0648 38.9811 15.1465 39.2833 15.122C39.7102 15.0893 40.0761 15.1356 40.3492 15.5274C40.4473 15.6662 40.617 15.6907 40.7681 15.4812C40.6966 15.3641 40.6223 15.2417 40.5534 15.1165C40.381 14.8009 40.2856 14.4635 40.3227 14.0988C40.3492 13.8512 40.5772 13.6308 40.7788 13.6499C41.0121 13.6716 41.0731 13.8594 41.1049 14.0553C41.1367 14.2431 41.1553 14.4363 41.1818 14.624C41.2268 14.9505 41.3912 15.2036 41.6537 15.3832C41.8075 15.4893 41.9348 15.4158 41.9507 15.2254C41.9586 15.1247 41.9321 15.0186 41.9401 14.9179C41.956 14.7192 41.9613 14.5152 42.009 14.322C42.0594 14.1315 42.2556 14.0281 42.4359 14.0934C42.656 14.175 42.8654 14.2893 42.9264 14.5478C43.0166 14.9261 43.2923 15.005 43.6131 15.0213C43.7431 15.0267 43.873 15.0295 44.0002 15.0267C44.2177 15.0213 44.3211 15.1329 44.3158 15.3478C44.3105 15.6281 44.3025 15.9084 44.284 16.1859C44.2733 16.3301 44.1991 16.4172 44.0427 16.4499L44.0453 16.458Z" fill="white"/>
<path d="M45.1277 30.5198C44.0724 30.1524 42.9509 30.0654 41.8479 30.2313C41.4316 30.2939 40.9888 30.2313 40.5646 30.1796C40.3312 30.1524 40.1006 30.0436 40.0343 29.6817C41.5429 29.4858 42.988 29.6735 44.4569 30.1307C44.9103 28.3266 45.3531 26.5633 45.7959 24.7973C46.0053 22.8408 45.4962 20.3891 45.2603 19.3959C44.7724 18.9225 44.2289 18.332 43.8842 18.4218C43.916 18.8408 42.8899 18.9442 43.2001 19.2436C43.4096 19.4449 43.8577 25.8041 44.0141 28.0708C43.2346 24.0164 43.9372 21.3388 42.7679 18.9823C42.0812 17.6 39.9786 17.8095 38.873 16.7565C38.7669 16.6558 38.6794 16.4898 38.5177 16.5361C38.4222 16.9225 38.3798 17.298 38.2313 17.6218C38.0828 17.9429 37.8283 18.2123 37.5923 18.5415C37.7965 18.6313 37.9556 18.6912 38.104 18.7728C38.4302 18.9551 38.7536 19.1456 39.0692 19.3442C39.1354 19.3851 39.1646 19.4885 39.268 19.649C38.987 19.5891 38.8067 19.5565 38.629 19.5102C37.9317 19.3252 37.2317 19.1783 36.5079 19.1483C36.0068 19.1293 35.5348 19.2272 35.1053 19.4939C34.9541 19.5891 34.8348 19.7334 34.6307 19.9184C34.8613 20.0762 35.0045 20.1905 35.1583 20.2803C35.609 20.5442 35.9908 20.9252 36.2666 21.3769C36.6537 22.0191 36.8579 22.7266 37.0408 23.4449C37.3378 24.6041 37.7991 25.6898 38.4037 26.7157C38.7457 27.2953 39.2309 27.7769 39.7983 28.1307C40.1828 28.3701 40.5699 28.6041 40.9543 28.8463C41.0312 28.8926 41.0949 28.9633 41.2089 29.0613C40.8377 29.0422 40.5381 29.0096 40.2384 29.0177C39.6498 29.0368 39.0612 29.0966 38.4726 29.1021C38.0881 29.1048 37.6957 29.0776 37.3192 29.0014C36.8817 28.9143 36.5715 28.6205 36.4522 28.1715C36.4177 28.0436 36.4283 27.8477 36.5026 27.7633C36.5556 27.7034 36.7651 27.7443 36.8844 27.7932C37.1654 27.9075 37.4253 28.0735 37.7063 28.1769C37.9529 28.2667 38.2181 28.3293 38.4805 28.3483C38.7271 28.3674 38.8093 28.2096 38.6767 27.9946C38.5786 27.8368 38.462 27.6871 38.3347 27.5511C37.4942 26.6613 36.6537 25.7742 35.8052 24.8953C35.1371 24.2041 34.453 23.532 33.9943 22.6585C33.5886 21.883 33.5197 21.1266 33.9917 20.3538C34.0686 20.2286 34.1667 20.098 34.1269 19.9048C33.7689 19.9919 33.5621 20.234 33.3712 20.4925C32.8675 21.1755 32.8595 21.9538 33.0212 22.7347C33.5118 25.1211 34.4583 27.3007 35.9246 29.23C36.6192 30.1443 37.4412 30.8626 38.5601 31.1973C39.2335 31.3987 39.8858 31.679 40.546 31.9266C40.6229 31.9565 40.6892 32.0109 40.7608 32.0518L40.7237 32.1524C39.8063 31.9783 38.8862 31.8069 37.9688 31.6273C37.5738 31.5511 37.2105 31.3579 36.9029 31.0939C36.7889 30.996 36.6617 30.9143 36.4601 30.7674C36.3727 31.4422 36.1871 32.0409 35.9086 32.5878C35.6223 33.1538 35.9193 33.8422 36.5264 33.9837L41.2725 35.0885C41.5164 35.1157 43.1391 35.3334 43.4864 35.3878C43.847 34.8436 43.741 34.1633 43.9876 33.5456C44.2898 33.6518 44.5735 33.7497 44.8572 33.8477C45.239 33.9783 45.6156 34.1252 46.0027 34.2259C46.3314 34.3103 46.4295 34.2259 46.5754 33.864C46.4269 33.6654 46.1724 33.5293 46.1803 33.2191C46.1962 32.5851 46.35 32.0191 46.9254 31.6708C47.1719 31.5211 47.4344 31.396 47.681 31.249C47.7818 31.1892 47.9303 31.1483 47.9011 30.9497C47.8481 30.9361 47.795 30.9062 47.7447 30.9116C46.8405 31.0014 45.9708 30.8164 45.1277 30.5225V30.5198ZM39.5226 27.4313C39.3317 26.4871 39.9388 23.5402 39.7691 22.5415C39.7585 22.4844 39.6074 21.2109 39.4828 20.7157C39.3767 20.2885 38.8995 19.9864 39.2998 19.8368C39.6896 19.6898 39.9998 22.0136 40.1562 22.6613C40.2862 23.1891 39.5358 27.513 39.5199 27.4313H39.5226Z" fill="white"/>
<path d="M48.2082 31.0553C48.2082 31.0553 48.6616 33.175 47.0654 34.239C47.0654 34.239 47.4711 34.8784 47.9033 34.5845C47.9033 34.5845 48.2851 34.1301 48.1552 33.839C48.1552 33.839 48.9983 33.5859 48.6749 33.0117C48.6749 33.0117 49.4013 32.4267 48.8949 32.0267C48.8949 32.0267 49.115 31.0526 48.6616 31.0526H48.2082V31.0553Z" fill="white"/>
<path d="M45.414 12.8024L45.1356 12.2473C45.0878 12.1521 44.9924 12.0922 44.8863 12.0949H44.8731C44.2447 11.099 42.8818 9.44459 40.9436 9.86636C40.9436 9.85003 40.9463 9.83643 40.9463 9.82282C40.9357 9.40105 40.583 9.07452 40.1588 9.09357C39.7346 9.10989 39.4005 9.46636 39.4111 9.88541C39.4164 10.0949 39.5092 10.2827 39.6524 10.416C38.9073 10.914 37.693 11.9997 38.8808 14.7943C38.8357 14.8623 38.8145 14.9439 38.8357 15.0256L38.8755 15.1752C38.9259 15.363 39.138 15.4446 39.2944 15.3358C40.6043 14.4079 44.128 13.4827 45.2363 13.2079C45.4087 13.1643 45.4961 12.9657 45.414 12.8051V12.8024Z" fill="white"/>
<path d="M45.4717 19.4801C45.4717 19.4801 46.4023 21.7495 46.0523 24.0162C46.0523 24.0162 47.5451 21.1672 45.4717 19.4801Z" fill="white"/>
<path d="M37.4664 16.5281C37.4664 16.5281 34.4915 17.0233 33.2931 17.6329C33.1897 17.6846 33.0995 17.7608 33.0226 17.8478C32.5984 18.3376 31.392 20.1308 32.1715 24.0166C33.1075 28.6832 33.1631 28.2315 33.1631 28.2315L32.6938 24.0193C32.6938 24.0193 32.2457 19.9159 33.5131 18.4302C33.5131 18.4302 34.115 17.4315 37.4717 16.5281H37.4664Z" fill="white"/>
<path d="M40.4145 22.768H39.9346V23.0754H40.4145V22.768Z" fill="white"/>
<path d="M33.3223 29.7855C33.3223 29.7855 34.0673 31.9351 36.0585 30.4249C36.0585 30.4249 34.1707 30.9637 33.3223 29.7855Z" fill="white"/>
<path d="M34.458 18.1693C34.458 18.1693 35.7837 18.036 35.9508 18.9965C35.9508 18.9965 36.0939 17.6632 34.458 18.1693Z" fill="white"/>
<path d="M0.672573 42.5441L5.56712 41.9156L5.88795 44.555L5.16941 44.6476L4.96259 42.9469L3.72968 43.1047L3.92058 44.672L3.20204 44.7646L3.01114 43.1972L1.50247 43.3904L1.70928 45.0911L0.990746 45.1836L0.669922 42.5441H0.672573Z" fill="white"/>
<path d="M6.49232 47.401L6.70179 48.3207L1.89739 49.469L1.67997 48.5085L3.22841 47.3819C3.74278 47.0037 4.28103 46.6663 4.98896 46.269V46.2554C4.59655 46.3833 4.11929 46.5384 3.63673 46.6826C3.16212 46.8241 2.68751 46.9574 2.30306 47.0499L1.39892 47.2649L1.18945 46.3452L5.99385 45.1969L6.21127 46.1493L4.62571 47.284C4.12194 47.654 3.59696 47.986 2.86516 48.3969V48.4105C3.29734 48.2744 3.75604 48.1302 4.21209 47.9914C4.66814 47.8554 5.12418 47.7248 5.55371 47.6214L6.49497 47.3955L6.49232 47.401Z" fill="white"/>
<path d="M3.93188 50.7377L3.35387 50.9418C3.18683 51.0071 3.06486 51.1214 3.1391 51.3391C3.24516 51.6575 3.48379 51.5813 3.73833 51.4942L7.32307 50.2398L7.62003 51.135L4.21559 52.3268C3.89741 52.4384 3.45197 52.6234 3.05691 52.4411C2.69631 52.2751 2.53193 51.8887 2.38875 51.4561C2.28269 51.1377 2.28269 50.7377 2.56109 50.3677C2.69366 50.1989 3.19478 49.9758 3.63227 49.8506L3.92923 50.7459L3.93188 50.7377Z" fill="white"/>
<path d="M5.97554 52.7024C7.13422 52.2044 8.0251 51.8996 8.63758 53.2738C9.25006 54.6507 8.43872 55.1405 7.31452 55.7119L6.67287 56.0112C5.47707 56.5718 4.56233 56.8874 3.93394 55.4752C3.30555 54.0629 4.1381 53.5622 5.33655 53.0017L5.97819 52.7024H5.97554ZM5.31003 54.082C4.93883 54.2561 4.34756 54.569 4.61005 55.1595C4.88315 55.7745 5.50094 55.4915 5.93312 55.2901L7.08119 54.7514C7.43913 54.5826 8.24517 54.2289 7.96147 53.5894C7.66185 52.9146 6.90089 53.3364 6.55356 53.4997L5.31003 54.082Z" fill="white"/>
<path d="M9.03512 57.1996C8.87603 57.4146 8.70369 57.6159 8.49688 57.7874L8.50483 57.7983C8.86542 57.6568 9.16769 57.6214 9.462 57.5751L10.6472 57.3765L11.1616 58.2636L8.05939 58.6064L6.25906 59.7085L5.78711 58.8976L7.58743 57.7955L9.36389 55.1751L9.87827 56.0622L9.03246 57.2023L9.03512 57.1996Z" fill="white"/>
<path d="M13.7598 61.7004L14.3484 62.4269L11.7023 64.6827C10.8617 65.3984 10.236 65.461 9.46709 64.5086C8.69022 63.548 8.86257 62.9276 9.70042 62.212L12.3466 59.9562L12.9352 60.6827L10.35 62.8868C9.98677 63.197 9.64209 63.5344 10.0425 64.027C10.4243 64.5004 10.8114 64.2147 11.1746 63.9045L13.7598 61.7004Z" fill="white"/>
<path d="M13.6061 65.7487L12.1372 67.3243L11.4717 66.6712L14.8814 63.0113L16.1409 64.2467C16.7162 64.8127 16.9628 65.4467 16.3344 66.1188C15.9606 66.5188 15.47 66.8399 14.9636 66.4644L14.9557 66.4753C15.3004 66.9161 15.1784 67.2916 14.8496 67.6426C14.7091 67.795 13.8527 68.6739 13.9137 68.9379L13.85 69.0059L13.1182 68.2875C13.2561 67.9746 13.6883 67.5392 13.911 67.2916C14.1152 67.063 14.4068 66.761 14.2424 66.4671C14.1125 66.2358 13.9137 66.0508 13.7227 65.863L13.6034 65.746L13.6061 65.7487ZM14.1072 65.2127L14.6295 65.727C14.8629 65.9256 15.1704 65.9474 15.5098 65.5828C15.8916 65.1719 15.7882 64.9406 15.5416 64.6902L15.0485 64.2059L14.1072 65.2154V65.2127Z" fill="white"/>
<path d="M14.7441 69.7681L17.7482 65.7518L18.9281 66.6797C19.241 66.9273 19.5326 67.1912 19.5379 67.6266C19.5406 67.9776 19.3948 68.228 19.1906 68.5028C18.9308 68.8511 18.602 69.1368 18.0929 68.9736L18.0849 68.9844C18.4535 69.3681 18.3448 69.8443 17.9577 70.364C17.8331 70.53 17.6978 70.6879 17.5361 70.8157C16.9979 71.2021 16.5577 71.194 16.0354 70.7831L14.7468 69.7681H14.7441ZM16.0725 69.877C16.2236 69.9967 16.3695 70.1355 16.5418 70.179C16.807 70.2443 17.0297 70.0021 17.1835 69.7981C17.5069 69.3654 17.56 69.1178 17.1066 68.7586L16.8255 68.5355L15.9161 69.7518L16.0725 69.8742V69.877ZM17.4009 68.0565C17.5785 68.1953 17.8012 68.3885 18.0266 68.3287C18.1698 68.2797 18.2838 68.1491 18.4296 67.9559C18.655 67.6565 18.7027 67.4579 18.3766 67.1831L18.0372 66.9164L17.263 67.9504L17.3982 68.0565H17.4009Z" fill="white"/>
<path d="M17.7109 72.0673L21.293 68.383L22.3536 69.0497L20.7283 73.9639L19.8878 73.4333L20.3332 72.2088L19.4132 71.6292L18.5514 72.5925L17.7109 72.0619V72.0673ZM19.9143 71.0796L20.5877 71.5041L21.1074 70.1435C21.1896 69.9177 21.2877 69.7109 21.3858 69.4959C21.4389 69.3952 21.4866 69.2891 21.529 69.1911L21.5184 69.183C21.4521 69.2673 21.3832 69.3599 21.3195 69.4524C21.1764 69.6401 21.0438 69.8252 20.8847 70.002L19.9169 71.0796H19.9143Z" fill="white"/>
<path d="M25.6678 70.8069L26.5003 71.2097L24.3977 75.7893L23.528 75.3702L23.6288 73.4274C23.658 72.777 23.7349 72.1348 23.8701 71.3212L23.8568 71.3158C23.7136 71.7076 23.536 72.1893 23.3451 72.6654C23.1595 73.1335 22.9659 73.6015 22.7989 73.9661L22.4038 74.826L21.5713 74.4233L23.6739 69.8437L24.5356 70.26L24.4189 72.241C24.3898 72.875 24.3182 73.5063 24.1776 74.3471L24.1909 74.3525C24.3526 73.9226 24.5276 73.4627 24.7053 73.011C24.8829 72.5593 25.0685 72.1131 25.2541 71.7022L25.6651 70.8042L25.6678 70.8069Z" fill="white"/>
<path d="M28.8517 75.1024L28.2684 77.2003L27.3828 76.9418L28.735 72.0738L30.4108 72.5636C31.177 72.7867 31.6834 73.2303 31.4342 74.1255C31.2857 74.6588 30.9994 75.1786 30.3816 75.0888V75.1024C30.8827 75.3282 30.9463 75.7174 30.8164 76.1854C30.7607 76.3867 30.4028 77.5731 30.5778 77.7799L30.5513 77.8697L29.5782 77.584C29.557 77.2412 29.7426 76.648 29.8248 76.3214C29.9017 76.0221 30.021 75.614 29.7426 75.4344C29.5225 75.2929 29.26 75.2221 29.0081 75.1486L28.8491 75.1024H28.8517ZM29.0506 74.3895L29.7452 74.5935C30.0422 74.6588 30.3233 74.531 30.4585 74.0439C30.6096 73.4997 30.4134 73.3418 30.0793 73.2384L29.4218 73.0452L29.0479 74.3895H29.0506Z" fill="white"/>
<path d="M32.1447 75.2224C32.3886 73.9571 32.6352 73.0265 34.0909 73.2714C35.5438 73.5163 35.4908 74.4795 35.3264 75.7584L35.2124 76.4714C34.9976 77.8047 34.7458 78.7598 33.253 78.5068C31.7602 78.2537 31.8186 77.2659 32.0333 75.9326L32.1474 75.2197L32.1447 75.2224ZM32.8898 76.5584C32.8235 76.9721 32.7492 77.6496 33.3723 77.7557C34.0219 77.8646 34.1386 77.1816 34.2155 76.6999L34.4196 75.421C34.4833 75.021 34.645 74.1394 33.9689 74.0251C33.2557 73.9054 33.1735 74.787 33.1125 75.1734L32.8898 76.5584Z" fill="white"/>
<path d="M38.6144 73.847L39.5345 73.8933L39.3674 77.4198C39.3144 78.5382 38.9352 79.0552 37.7315 78.9953C36.5171 78.9355 36.1857 78.3858 36.2387 77.2647L36.4058 73.7382L37.3258 73.7845L37.1641 77.2294C37.1402 77.7137 37.1508 78.2008 37.7766 78.2334C38.3731 78.2634 38.4315 77.779 38.4527 77.2947L38.6144 73.8498V73.847Z" fill="white"/>
<path d="M39.9951 73.8912L43.0628 73.7198L43.1026 74.4599L42.0314 74.5198L42.2594 78.8327L41.3394 78.8844L41.1114 74.5715L40.0349 74.6313L39.9951 73.8912Z" fill="white"/>
<path d="M44.2275 78.6664L43.501 73.6568L46.0649 73.265L46.171 73.9997L44.5191 74.2528L44.7021 75.5153L46.224 75.2841L46.3301 76.0187L44.8081 76.25L45.0309 77.7929L46.6827 77.5398L46.7888 78.2745L44.2248 78.6664H44.2275Z" fill="white"/>
<path d="M48.8853 74.1603C48.7846 73.7195 48.6388 73.2977 48.1482 73.4256C47.8486 73.5045 47.6869 73.6759 47.7691 74.0106C47.8619 74.3834 48.127 74.4678 48.4505 74.5793C48.7899 74.6936 49.4236 74.9195 49.7338 75.1045C50.1156 75.3331 50.2827 75.6025 50.3887 76.027C50.6167 76.9549 50.1368 77.597 49.2645 77.8229C48.1933 78.1004 47.6604 77.5834 47.443 76.7072L47.3555 76.3481L48.249 76.1168L48.3206 76.4052C48.4187 76.8868 48.6441 77.1998 49.0842 77.0855C49.4607 76.9875 49.588 76.7399 49.4978 76.3671C49.4262 76.0787 49.2512 75.9154 48.9808 75.812C48.424 75.5589 47.777 75.4419 47.2945 75.0447C47.093 74.8596 46.9445 74.612 46.8809 74.3508C46.674 73.5127 47.0214 72.9358 47.9653 72.6909C49.3865 72.3236 49.6251 73.4583 49.7524 73.9399L48.8906 74.163L48.8853 74.1603Z" fill="white"/>
<path d="M53.9204 74.8129C53.2867 75.0769 52.5708 74.7558 52.3136 74.1082C52.0591 73.4633 52.356 72.7286 52.9897 72.4646C53.6234 72.2007 54.3499 72.5082 54.6044 73.1531C54.8616 73.8034 54.5541 74.5517 53.9204 74.8156V74.8129Z" fill="white"/>
<path d="M59.6243 70.4375C59.961 70.8184 60.3322 71.3463 60.7167 71.8633L60.7273 71.8552C60.6769 71.7436 60.6212 71.6375 60.5682 71.5259C60.3746 71.1395 60.189 70.7504 60.0247 70.3477L58.9296 67.798L59.7409 67.2864L61.5466 72.0919L60.6053 72.6851L59.2716 71.1803C58.9164 70.7803 58.6114 70.3368 58.28 69.9123L58.2694 69.9205C58.4895 70.4157 58.7361 70.8946 58.9243 71.4007L59.6641 73.281L58.7228 73.8742L55.3369 70.0674L56.1483 69.5558L57.9115 71.6865C58.1872 72.0184 58.4417 72.3667 58.691 72.715C58.7652 72.8103 58.8315 72.9109 58.9004 73.0116L58.9111 73.0035C58.6406 72.413 58.3516 71.8361 58.1713 71.3545L57.2141 68.8837L57.8637 68.4728L59.6216 70.4375H59.6243Z" fill="white"/>
<path d="M61.3748 68.618C60.6085 67.5948 60.0941 66.7894 61.2342 65.8316C62.3744 64.8737 63.0425 65.5513 63.8698 66.5227L64.3152 67.0805C65.1478 68.1254 65.6807 68.9527 64.5114 69.935C63.3421 70.92 62.6554 70.2207 61.8229 69.1758L61.3774 68.618H61.3748ZM62.8463 68.9254C63.1035 69.2493 63.5516 69.7554 64.0395 69.3445C64.5485 68.9173 64.1243 68.3758 63.8247 67.9976L63.024 66.9935C62.7747 66.6805 62.2338 65.9731 61.7062 66.4166C61.1467 66.8873 61.738 67.5323 61.9793 67.8343L62.8463 68.92V68.9254Z" fill="white"/>
<path d="M65.7466 65.6981L67.2712 67.2165L66.6295 67.8941L63.0898 64.3675L64.3042 63.0832C64.8584 62.4981 65.4788 62.2478 66.131 62.8981C66.5181 63.2845 66.8284 63.7907 66.4572 64.3077L66.4678 64.3158C66.9 63.9648 67.2659 64.0927 67.6052 64.4328C67.7511 64.5798 68.6022 65.4641 68.862 65.4015L68.9283 65.4668L68.223 66.2124C67.9181 66.0682 67.4992 65.622 67.2579 65.3907C67.0352 65.1784 66.7435 64.8791 66.4572 65.0451C66.2318 65.1784 66.0488 65.3798 65.8632 65.5757L65.7492 65.6954L65.7466 65.6981ZM65.2269 65.1811L65.7307 64.6478C65.9269 64.4111 65.9507 64.0954 65.5954 63.7417C65.1977 63.3471 64.9724 63.4505 64.7258 63.7009L64.2485 64.2043L65.2242 65.1784L65.2269 65.1811Z" fill="white"/>
<path d="M69.6703 64.5511L65.7939 61.4191L66.364 60.6763L69.673 63.3484L70.7309 61.9688L71.2983 62.4287L69.6703 64.5511Z" fill="white"/>
<path d="M71.9412 61.5071L67.7705 58.8024L68.7966 57.137C68.9159 56.9438 69.2394 56.6092 69.7776 56.6173C70.178 56.6228 70.6712 56.8704 71.3605 57.3166C72.1825 57.85 73.1344 58.4677 73.1025 59.3656C73.0946 59.6078 72.9726 59.8309 72.848 60.0323L71.9386 61.5098L71.9412 61.5071ZM72.0367 59.9643C72.4768 59.2513 72.1374 58.9683 70.931 58.1847C69.9473 57.5452 69.4939 57.3983 69.1996 57.8772L68.8762 58.4024L71.8219 60.3126L72.0367 59.9643Z" fill="white"/>
<path d="M73.4729 53.5614C73.9608 53.6866 74.5547 53.9097 75.1566 54.1193L75.1619 54.1084C75.0585 54.0458 74.9551 53.9886 74.8516 53.9261C74.4831 53.7165 74.1146 53.5016 73.7593 53.2594L71.4631 51.7709L71.8582 50.8811L75.9679 53.8335L75.5092 54.8648L73.5843 54.3805C73.0699 54.2526 72.5794 54.0594 72.0729 53.8961L72.0676 53.9097C72.5184 54.1954 72.985 54.4485 73.4172 54.7614L75.0532 55.8961L74.5945 56.9274L69.7158 55.7084L70.1109 54.8186L72.7305 55.575C73.1415 55.692 73.5392 55.8363 73.9369 55.9832C74.0509 56.0213 74.1596 56.0648 74.271 56.1111L74.2763 56.0975C73.7327 55.7601 73.1759 55.4499 72.765 55.1533L70.6279 53.6512L70.9434 52.9383L73.4703 53.5641L73.4729 53.5614Z" fill="white"/>
<path d="M76.6222 51.9515L71.9424 50.3488L72.234 49.4536L76.9138 51.059L76.6222 51.9543V51.9515Z" fill="white"/>
<path d="M77.3117 49.8112L72.5205 48.6139L72.9739 46.6983C73.0269 46.4751 73.2284 46.0534 73.7428 45.8819C74.1246 45.754 74.6682 45.8275 75.4609 46.0261C76.4075 46.2629 77.4999 46.535 77.7491 47.3976C77.8154 47.6289 77.7703 47.8819 77.7147 48.1105L77.3117 49.8085V49.8112ZM76.9219 48.3173C77.1154 47.4983 76.7071 47.3404 75.3204 46.9921C74.1883 46.7091 73.7137 46.7146 73.5837 47.267L73.4406 47.871L76.8264 48.7173L76.9219 48.3173Z" fill="white"/>
<path d="M78.2675 45.4123L73.3809 44.7348L73.7282 42.1007L74.4441 42.1987L74.2214 43.8967L75.4543 44.0681L75.6611 42.5035L76.377 42.6014L76.1702 44.166L77.6762 44.3756L77.8989 42.6776L78.6148 42.7756L78.2675 45.4096V45.4123Z" fill="white"/>
</svg>
