<svg width="28" height="28" viewBox="0 0 28 28" fill="none" xmlns="http://www.w3.org/2000/svg">
<g clip-path="url(#clip0_710_5349)">
<path d="M7.5 8.5V12H6C5.46957 12 4.96086 12.2107 4.58579 12.5858C4.21071 12.9609 4 13.4696 4 14V24C4 24.5304 4.21071 25.0391 4.58579 25.4142C4.96086 25.7893 5.46957 26 6 26H22C22.5304 26 23.0391 25.7893 23.4142 25.4142C23.7893 25.0391 24 24.5304 24 24V14C24 13.4696 23.7893 12.9609 23.4142 12.5858C23.0391 12.2107 22.5304 12 22 12H20.5V8.5C20.5 6.77609 19.8152 5.12279 18.5962 3.90381C17.3772 2.68482 15.7239 2 14 2C12.2761 2 10.6228 2.68482 9.40381 3.90381C8.18482 5.12279 7.5 6.77609 7.5 8.5ZM10 12V8.5C10 7.43913 10.4214 6.42172 11.1716 5.67157C11.9217 4.92143 12.9391 4.5 14 4.5C15.0609 4.5 16.0783 4.92143 16.8284 5.67157C17.5786 6.42172 18 7.43913 18 8.5V12H10ZM12 17.5C12.0001 17.1535 12.0902 16.813 12.2614 16.5118C12.4327 16.2106 12.6793 15.9591 12.977 15.7819C13.2747 15.6046 13.6134 15.5078 13.9598 15.5008C14.3062 15.4939 14.6485 15.577 14.9531 15.7421C15.2577 15.9072 15.5142 16.1486 15.6974 16.4427C15.8807 16.7368 15.9844 17.0734 15.9984 17.4196C16.0124 17.7658 15.9362 18.1097 15.7773 18.4176C15.6184 18.7255 15.3823 18.9868 15.092 19.176L15.084 19.181C15.084 19.181 15.279 20.361 15.499 21.751V21.752C15.499 21.9506 15.4201 22.1412 15.2796 22.2816C15.1392 22.4221 14.9486 22.501 14.75 22.501H13.248C13.0494 22.501 12.8588 22.4221 12.7184 22.2816C12.5779 22.1412 12.499 21.9506 12.499 21.752V21.751L12.914 19.181C12.6332 18.9997 12.4023 18.751 12.2423 18.4575C12.0823 18.1641 11.9983 17.8352 11.998 17.501L12 17.5Z" fill="white"/>
</g>
<defs>
<clipPath id="clip0_710_5349">
<rect width="20" height="24" fill="white" transform="translate(4 2)"/>
</clipPath>
</defs>
</svg>
